<svg id="Layer_1" data-name="Layer 1" xmlns="http://www.w3.org/2000/svg" viewBox="0 0 877.67 125.82"><defs><style>.cls-1{fill:#ff0;}</style></defs><title>warpArena</title><g id="_6M7pYr.tif" data-name="6M7pYr.tif"><path class="cls-1" d="M1339.65,522c7.11,7.38,2.79,13.73-1.79,20.06h-12.57c-5.31-5.49-7.1-12.86-10.28-19.92-4.39,3-6.69,9.27-12.12,8.9-10.47-.71-19.67.46-25.77,10.2a5,5,0,0,0-.33.82h-9c-6.56-6.23-6.25-12.72-2.27-20.6,9.84-19.5,17.37-40.06,26.89-59.76,3.3-6.83,7.39-10.37,13.9-9.13,6.66,1.27,9.73,7,10,13.86,0,1.19,0,2.38-.06,3.58-5.63.84-4.91-5.77-4.73-6.52,1.43-6.09-4.12-4.17-6.2-5.56-2.31-1.54-3.86,1.29-4,3.22-.16,3,0,6.32,4.58,6.31,2.79,0,2.6,2.3,3.33,4.25q10.61,28.27,21.68,56.37c.73,1.85.93,5.06,4.28,4.89,4-.21,2.23-3.42,2.62-5.44S1337.18,523.19,1339.65,522Zm-35.71-50.65A141.61,141.61,0,0,0,1284,512.4c-.88,2.88-1.68,8.23,5.76,8.39s12.72-6.18,20.34-3.89c-1.76-6.94-6.33-3.41-9.51-3.53-5.47-.21-9.93-5.21-8.59-10.69.76-3.09,2.35-6,3.49-9C1298.34,486.25,1301.13,478.78,1303.94,471.31Zm6.88,38.88c-1.2-3.39-2.52-6.5-3.39-9.74-.94-3.49-2.21-6.68-4.9-9.34C1293,508.06,1293,508.06,1310.82,510.19Z" transform="translate(-485.33 -427)"/><path class="cls-1" d="M553,427c-1.3,10.66-9.16,18-13.87,27-2.85,5.41-5.58,11.32-11.69,15,4.24-12.51,8.66-25,12.65-37.57,1.67-5.28,7.58-.11,9.31-4.4Z" transform="translate(-485.33 -427)"/><path class="cls-1" d="M935.7,486.41c6.75,4.69,3.33,10,.23,14.48-3.72,5.34-9.35,5.08-14.71,2.42-2-1-3.66-2.91-5.47-4.4q0-5.39,0-10.78c3.31.77,4.47-2.72,7-3.52-1.15,6.48,4.66,10.89,7.95,11.75,5.93,1.55.92-6.24,4.12-8.44C935.23,487.62,935.4,486.92,935.7,486.41Z" transform="translate(-485.33 -427)"/><path class="cls-1" d="M1361.39,490a5.42,5.42,0,0,1,1.61-.09V500.7l-.8,0-.79-.1A13.13,13.13,0,0,1,1361.39,490Z" transform="translate(-485.33 -427)"/><path class="cls-1" d="M1242.35,540.21l.3,1.8h-7.18l.3-1.8Z" transform="translate(-485.33 -427)"/><path class="cls-1" d="M579.77,462.47v35c7.19-7.16,9.19-16.55,12.73-25.15,4.67-11.37,9.06-22.86,13.33-34.4,2.14-5.8,7.16-7,12-7.07,5.79-.14,3.5,4.17,2.47,7q-8.61,23.89-17.52,47.68c-.64,1.7-1.63,3.12-.38,6.07,10.27-12.1,15.61-26.76,25.36-38.61-1.08,10.1-6,18.9-9.47,28.14-6.55,17.57-13.58,35-20.59,52.35-2.09,5.17-4.6,9.79-11.4,10.73-4.89.68-10.16,4.7-6.78-5.25,1.14-3.37-1-4.55-4.59-2.15-5.53,3.68-7.71,1.45-7.61-4.92.24-15.06.08-30.12-2-45.7l-8.17,13c-5.13-7.94-.4-16.93-3.29-25.42-3.13,1.24-3.68,3.88-4.57,6.59-5.26,16.09-10.69,32.13-16.09,48.18-1.32,3.91-2.33,8.93-5.79,10.54-3.69,1.72-8.53,4.44-12.6,2.28-3-1.6-.84-6.06-1.34-9.19-1.42-8.92-3.21-17.83-.29-28-6.14,2-6.21,8.46-11.56,9.8-1.81-20.08-3.28-40.22-4-61l-10,14.86c-2.58-11.37-.32-21.42-2.16-31.34-1-5.34,6.7-5,11.08-5.8,4.62-.86,4.48,2.47,4.41,5.6-.06,2.65,0,5.3,0,8.21,5.15.52,6.19-4.83,11.44-6.13l3.62,57.2,9.3-13.41c2.36,7.12-1.52,14.66,3.93,22.3,4.55-13.75,8.78-26.55,13-39.34,2.58-7.75,5-15.55,7.85-23.21,2.49-6.77,9.08-8.27,14.88-8.88,3.47-.37,2.79,4.34,2.71,7.42-.24,10.08-.26,20.17-.24,30.26,0,1.57-.91,4,1.59,4.4,2,.34,3-1.4,3.74-3.13A20.77,20.77,0,0,1,579.77,462.47Z" transform="translate(-485.33 -427)"/><path class="cls-1" d="M764,439.09c4.82,1.36,9-.49,13.32-1.18,3.19-.51,7.54-1.24,9.64.37,8.12,6.25,19,10.88,21.8,21.4,2.62,9.67-2.29,18.81-8.69,26.36-3.21,3.79-6.54,7.68-13,9.53,13.17,8.81,6.69,19.43,5,29.57,6.7-2.21,7.09-10.53,14.21-13-.41,12.17-3.82,23.39-6.49,34.51-1,4.1-8.61,5.8-13.26,3.81-3.53-1.5-2-5.88-.41-9.27,1.07-2.25,1.22-4.94,1.83-7.6-1.82.62-2.49,1.79-3.34,3.07-2.22,3.35-4.83,8.65-9.11,6.44-3.61-1.87-1.7-7.46-.89-11.4.7-3.42,2.17-6.69,2.78-10.12,1.73-9.59-1.87-14.17-11.7-15.57-1.12-.16-3,1.07-3.32-1.34-1.26-8.37-7.93-5.5-12.67-5.63s-8.49,1.53-10.31,7.45c-2.66,8.67-4.86,17.41-6.9,26.22-1.27,5.5-10,10.86-15.28,9.11-4.46-1.49-2.66-5.31-1.94-8.16,3.19-12.61,6.63-25.16,8.67-38.56L710.3,511l-1.26-.66c2-9,3.48-18.2,6.29-27,4.54-14.19,8.48-28.52,11.93-43,1-4.38,3.4-6.53,8.16-6.24a75.34,75.34,0,0,0,22-2.34C766.91,429.47,767.78,431.25,764,439.09ZM733.54,479.2c8.82-4.34,9.53-13.65,18.07-18.06-1.79,6.27-3.34,10.93-4.39,15.71-.55,2.5-1,6.79,2.42,6.55,9.16-.66,19.26,0,26.19-7.51,3.67-4,6.8-9.31,4.89-15.33a8.71,8.71,0,0,0-10-5.62c-5.8,1.44-11.88-1-17.25,2.65-.54-3.52,3-5.46,1.76-8.72-5.74-.13-12.58-2.63-15.21,5.14S735.94,469.69,733.54,479.2Zm40.86,8.47c10.6-.31,18-7.77,17.44-17.12-.07-1.32.6-3.28-1.42-3.59a3.51,3.51,0,0,0-2.88,1.43C783.88,475,777.62,479.87,774.4,487.67Z" transform="translate(-485.33 -427)"/><path class="cls-1" d="M812,492.39c5.31-17,10.8-33.85,15.85-50.88,2.89-9.74,11.33-7.72,18-8.94,4.88-.9,10.06-.18,15.72-.18-.28,2.85-2.55,5.4-4.58,8.45,7.88,1.83,14.55-1.73,21.63-1.46,16.62.65,31.63,19,27.9,35.13-5.05,21.83-22.13,36.79-44.53,38.64-7.09.59-12.15,3.19-14.32,10.38-1.77,5.87-4.49,11.53-5.64,17.51-1.63,8.43-7.74,10.29-14.56,11.54-2.28.42-4.81.71-5-3.09C822,542.73,818,543,813,544.87c-3.9,1.45-5.33.95-3.57-4,6.57-18.43,12.49-37.09,19-55.56.84-2.39,1.16-4.48,1-9.77L815,494.86Zm50.42,4.4c2.95-.61,5.16-1.23,7.41-1.5,10.11-1.23,16.24-7.2,20.1-16.24,2-4.59.16-8.34-2.72-11.25-3.82-3.86-6,.93-8.66,2.78-1-14.31-3.85-16.67-15.55-14.69-7.6,1.28-11.46,5.22-12.86,12.53A81.56,81.56,0,0,1,846.5,481c-2.57,7,1.36,8,6.55,6.84s10.25-3.25,16.15-5.2C868.08,488.5,861.82,490.68,862.38,496.79Zm-8.53,8.55c-15.33-2.34-16.53,1.07-22.16,25.87C841.1,523.12,846.25,514,853.85,505.34Zm-3.37-56.53c-9.18.65-11.39,3.67-11.39,14.79C843.19,459.09,847.92,455.16,850.48,448.81Z" transform="translate(-485.33 -427)"/><path class="cls-1" d="M610.8,513.77c14.1-26.15,28.13-52.35,42.35-78.44,4.39-8.06,12.16-6.52,19.25-6.29,2.26,3.71-3.74,4.7-2.15,8,.26.14.53.43.78.4,14-1.46,14.67-.85,14.85,14.47.1,8.27,0,16.53,0,24.77,5.76.81,5.77-5.09,10.85-6.94-1.14,18.17,1.51,35.36,2,52.85,4.43.55,5-5.77,10.48-5.24,0,8.42-.07,16.93,0,25.44.09,8.66-6.38,5.77-10.92,6.39-5.15.7-8.13-.71-7.09-6.64a25,25,0,0,0,0-4.36c-4-1.65-4.86,6.26-9.12,2.59-3-2.6-1.76-6.24-1.52-9.29.45-5.72-1.26-8.44-7.34-7.48-3.18.5-6.36-.31-9.65,1.14-2.53,1.12-5.8.57-9.42.8l3-9c-5.71.52-10.51,1.87-15.5,1.94-3.91.06-4.74,4-6.53,7.2-8.63,15.54-7.33,17.35-23,15.18l39.76-77-1.28-.76L612,515Zm58.77-14.65c.72,4.22-5,5.81-4,10.12,17.65,1.1,16.37-3.44,13.5-19.49-3.55,3.22-5.56,7.65-9.78,9.69V463c-7.68,11.72-14.13,24-20.44,36.4-1.35,2.65.86,3.2,2.65,2.93C657.52,501.43,663.53,500.23,669.57,499.12Z" transform="translate(-485.33 -427)"/><path class="cls-1" d="M1081.13,497c.35,5.16-7.2,6.77-5.61,12.48l-8.54-4.32a10.68,10.68,0,0,0,.86,6.82c3.81,7.82,13.33,9.46,17.45,16.78,3.08-2.29,10,4,10.26-4.62,3.15,5.21,2.6,10.47-2,14-5.93,4.6-12.65,2.18-18.19-1.12a51.07,51.07,0,0,1-19.86-20.94c-.75-1.49-1.06-4.09-5.1-4.55,0,4.57,0,8.85,0,13.12,0,6.69-5.8,13.56-11.51,13.7-6.13.15-11.83-6.18-11.83-13.24,0-18.22.15-36.44-.11-54.65-.07-4.87,1.84-9.18,2.47-13.82.41-3.05,3-5.68,5.89-5.75,12.69-.3,25.47-2.1,38,1.33,2.81.76,4.38,2.81,5.7,5.17l-40.39-4.83c-.82-.1-2.23-.12-1.61,1,.77,1.37-1.17,2.94,1.22,4.35,3.17,1.86,6.28,1.45,9.46,1.49,23.93.27,27.66,4.2,29,28.15C1076.93,490.07,1073.86,496.69,1081.13,497Zm-29.57-8.17c6.58-3.47,15.67-.68,14.83-10.77-.45-5.43-5.37-7.35-9.94-5.91C1047.41,475,1054.52,482.4,1051.57,488.82Zm-11.88,40.81c9.85-1.86,6.73-9.22,7.14-15,.27-3.81-2.91-3.07-4.89-3.5-3.84-.83-2.08,2.43-2.16,3.76C1039.53,519.55,1039.69,524.26,1039.69,529.63Zm7.63-50.9c-2.77-2.59,2.91-9.59-3.09-9.7-5.12-.1-2.36,6.68-2.54,10.29-.16,3.26-2.47,9.33,3.5,9C1048.77,488.06,1045.91,482.46,1047.32,478.73Zm-17,17.44-.9-.24v33.13h.9Z" transform="translate(-485.33 -427)"/><path class="cls-1" d="M1242.35,540.21h-6.58c-11-5.51-14.79-16.39-20.16-26.26-3.93-7.23-10-13.09-13.46-20.75l-2.61.51c0,10.14.11,20.29-.06,30.43-.06,3.37,1.47,7.32-2.46,9.75,2.29-14.38,1.64-28.19-7.47-38.75V535c1.59-4.09,2.29-6.33,4.65-6.27,3.28.08,1,3.87,2.94,5-1.86,7.7-8.13,7.45-13.43,6.12-5.06-1.26-7.73-5.43-7.64-11.46.3-20,.11-40,.12-60,0-11.62,2.69-15.52,11.64-17,14.14-2.37,18.45-.19,22.57,11.4l-1.58,2c-.2-2.26-5.06-1.15-3.38-5.07,1.44-3.36-1.89-5-4-5.37-9.37-1.7-14.53,4-14.85,12.3-.38,10,1.72,18.59,7.8,27,6.94-11.54-1.58-20.51-4.72-31.31,16.38,2.53,17.82,17.79,24.88,27.56,7.52,10.39,14,21.54,20.94,32.35-1.64-3.13,3.05-6.52,1.31-7.42-5.85-3-2.81-9.52-6.23-13.69-2-2.38-7.3-6.3-2.61-11.25a13.31,13.31,0,0,0-1.42-1.85l-.25.27c4.22-7.66,1.09-15.92,1.85-23.87.51-5.35,2.15-10.12,7.23-11.92,4.35-1.54,9.64-2.67,12.46,3.33l.27-.19c-4.13,4.63-7.37-4.64-10.66-1.55,1.83,6.22,3.34,11.9,3.35,17.94,0,18.19,0,36.38,0,54.57,0,3.76-.88,8.27,5.29,8l.15,2.2Zm-62.07-15.44c1.83,2.3,1.22,5.77,4.29,5.73,1.15,0,2.62-1.7,2.29-3.41-.26-1.35,1.45-3.86-1.58-3.87-6.52,0-5.48-4.66-5.48-8.67q0-24.7,0-49.39l-1.8,0V531.1l1.37.18Z" transform="translate(-485.33 -427)"/><path class="cls-1" d="M1009.23,513.47c7.26,4.31,10.25,16.07,5.57,22-6.43,8.11-17.53,5.47-21.82-5.17-1.41-3.49-1.7-7.44-4.6-10.81-2.6,6.82-7.71,8.67-14.53,8.3-7.31-.39-15-2.07-19,7.83-1.67,4.09-7.54,6.89-12.93,3-5.23-3.74-7.26-8.58-4.47-14.83q14.3-32.05,28.55-64.13c2.37-5.34,4.71-9.93,12.06-9.4s9.89,5.31,12.34,10.91c1.28,2.93.58,5.86.75,8.79-5.68-1.45-5.33-6.72-5.89-10.65-.73-5.13-6.75-.34-7.23-4.68a6.1,6.1,0,0,0-4.33,3.92c-1,2.87,2.27,5.39,3.53,5.24,5.07-.62,4.42,3,5.5,5.77q10.81,28.18,22,56.21c.91,2.25,1.54,6.78,5.78,4.62,3.37-1.72,2.59-4.66.65-7.58A12.58,12.58,0,0,1,1009.23,513.47ZM975.08,468.8c-5.89,13.25-12.12,26.37-17.24,39.91-.69,1.82-.89,10,7.3,8.38,3.13-.62,6.44-1,9.32-2.18,5.09-2.15,8.45-.95,10.94,5.24.81-6.05-.13-9.19-5.88-8.93-3.9.18-7.82,0-11.73,0l-.09-1.08,5.86-1.08-.21-.9-9.67-1.35C967.35,494,974.51,482.66,975.08,468.8Zm1,19.33c-8.76,22.28-10.33,16.39,8.22,18.55C981.08,500.89,981,494.11,976,488.13Z" transform="translate(-485.33 -427)"/><path class="cls-1" d="M1154.45,486.11c6.29.43,6.15,5.17,6,9.48-.19,6.44-4.77,9.33-10.28,10.32-4.05.72-8.34.34-12.51.14s-6.78.24-6.53,5.58c.22,4.63,1,7.43,6.47,7.11s10.75,0,16.12-.07c5.53-.07,8.16,3.11,10.24,7.85,2.24,5.11-1.06,7.28-4,9.91l-44.63.29-3.87-3.87-.23-75.19c0-5.33,3.2-7.19,7.95-7.21,11.67,0,23.34-.35,35,.12,6.06.25,9.47,4.15,9.48,10.59s-3.33,10-9.41,10.71c-4.43.5-9,.16-13.45.09-4.26-.07-7.83-.68-8,6.06-.15,7.29,3.79,6.36,8.39,6.64s9.42-1.9,13.51,1.73c-10.5,2.92-22.06-1-27.5,3.33,6.7-1.25-1-9.77.35-15.59.51-2.23,1.18-5.64-3.28-5.78s-3.74,2.86-3.75,5.48c0,7,0,14,0,21,11.82,2.9,24.83-2.76,37.75,1.67C1161.35,492.45,1154.57,490.17,1154.45,486.11Zm5,44.45c1.8-7.33-1.18-10.12-7.55-10.1-3,0-6-.15-8.93,0-7.88.46-16.06,1.54-13.74-10.93.23-1.21-1.17-2.65-1.46-4.05-.42-2.1-.79-4.32-3.55-3.76-2.41.49-3.54,2-3.85,4.92-2.4,22.58-2.3,22.82,20.46,22.76,3.25,0,7.06.69,9.61-.74C1154.45,526.44,1156.5,529.15,1159.48,530.56Zm.4-69.41c-3.42-2-1.73-8.5-6.5-8.73-11.45-.56-22.94-.18-34.41-.18V454h31.92v2h-32.71C1131,465.33,1145.76,458.21,1159.87,461.15Z" transform="translate(-485.33 -427)"/><path class="cls-1" d="M1246.32,536.83l-.15-2.2a10.78,10.78,0,0,0,3.16-8.86c-.91-18.27-.85-36.6-1.35-54.89-.14-5.09,2.37-10.14.18-15.23l-.27.19c5.19,2.43,5.33,7.09,5.6,11.94,1.16,20.87-2.2,41.59-1.82,62.42C1251.74,534.09,1250.46,536.52,1246.32,536.83Z" transform="translate(-485.33 -427)"/><path class="cls-1" d="M529.19,546.71l23.89-42.06,1.59.67c-4.33,12.59-8.2,25.37-13.28,37.65C539.84,546.71,534.47,547.41,529.19,546.71Z" transform="translate(-485.33 -427)"/><path class="cls-1" d="M1359.21,500.78c-.87,4.6-9.64,8.21-13.08,4.58-3-3.15-8-5.79-6.62-12.12,1.17-5.31,5-5.85,8.92-6.83C1347.23,492.12,1352.38,499,1359.21,500.78Z" transform="translate(-485.33 -427)"/><path class="cls-1" d="M1111.46,532.83l3.87,3.87-.14,1.88c-4.42-.53-7.19-2.87-7.2-7.43q-.06-34.87.15-69.74c0-.61,1-1.21,1.52-1.82,0,21.73,0,43.46.17,65.19C1109.84,527.45,1108.16,530.73,1111.46,532.83Z" transform="translate(-485.33 -427)"/><path class="cls-1" d="M1208.83,464.77l1.58-2c7.34,7.23,12,16.14,15.94,25.5l.25-.27C1215.28,484.4,1214.15,473,1208.83,464.77Z" transform="translate(-485.33 -427)"/><path class="cls-1" d="M1005.48,504.09c-7.06-6.74-10-15.24-10.63-24.74C1003,485.6,1005.05,494.5,1005.48,504.09Z" transform="translate(-485.33 -427)"/><path class="cls-1" d="M1080.87,497.24c-.73-6.08,5.88-10.29,3.38-16.8,3.22.73,1.12,3.6,3.34,4.49,3-6.3-5.42-11.93-1.13-18.14C1093.59,477.47,1090.8,492.68,1080.87,497.24Z" transform="translate(-485.33 -427)"/><path class="cls-1" d="M743.73,531.8c-.77,5.11.2,10.88-4.11,14.58-1.34,1.15-3.34,2.86-5.33,1.4-2.48-1.82-.09-4,.74-5.21C737.6,538.76,740.79,535.36,743.73,531.8Z" transform="translate(-485.33 -427)"/><path class="cls-1" d="M1114.95,538.31l43.08.18C1143.66,541.14,1129.29,541.65,1114.95,538.31Z" transform="translate(-485.33 -427)"/></g></svg>