<svg id="Layer_1" data-name="Layer 1" xmlns="http://www.w3.org/2000/svg" xmlns:xlink="http://www.w3.org/1999/xlink" viewBox="0 0 1468.62 1310.04"><defs><style>.cls-1{fill:none;}.cls-2{clip-path:url(#clip-path);}.cls-3{clip-path:url(#clip-path-2);}.cls-4{fill:#736357;}.cls-5{fill:#413832;}</style><clipPath id="clip-path" transform="translate(-725.41 12.2)"><rect class="cls-1" x="923" y="19" width="568.82" height="1039" rx="20" ry="20"/></clipPath><clipPath id="clip-path-2" transform="translate(-725.41 12.2)"><rect class="cls-1" x="861.62" y="-10.59" width="1170.52" height="1298.75"/></clipPath></defs><title>woodGrain</title><g class="cls-2"><g class="cls-3"><rect class="cls-4" x="136.21" y="1.61" width="1170.52" height="1298.75"/><path class="cls-5" d="M2101.51,675.42c-24.58-1.44-48.76-2.88-72.84-4.7a249.08,249.08,0,0,1-33.6-4.69C1949.94,658,1905,639.33,1859,642.62c-9.86.55-19.69,1.43-29.8,2.54-28.28,2.94-56.78,9.52-86.92,12-9.7,1.2-19.41,2.23-29.16,3s-19.54,1.16-29.39,1.16a228.87,228.87,0,0,1-26.39,0c-75.62-4.38-151.25-12.06-226.66-5.39a251.84,251.84,0,0,0-28.54,5.08q-16.48,2.65-32.8,6.18a562.84,562.84,0,0,0-64.92,18.24c-24.11,8.77-49.32,8.77-74.42,11.88-12.33.67-24.57.92-36.81.85-73.43-.43-146.9-12.23-220.1-23-10.6-.69-20.91-1.36-30.38-1.89q-28.41-1.61-56.93-4.48c-9.38.08-18.73.39-28.11.9-18.77,1-37.67,2.79-57.4,5.33v3.18l58.13-.57q14.54-.14,29.09-.11,23.17,2.14,46.27,3.45c7.7.44,15.42.82,23.2,1.16,77.62,9.87,154.83,19.74,231.79,19.56,12.83,0,26.12-.54,39.36-1.37,16-.64,32.47-1.74,50-6.12,37-8.51,73.6-17.14,110.06-23.73,12.42-2.43,25.09-4.88,37.14-6.53C1494,658,1562,655.77,1631,673.31c14.25,3.29,27.4,0,41.65-1.1,11-1.37,22-3.31,34.26-4.76,61.09-10.59,124.66-18.26,187.36-15.63,13.39.89,25.92,2.2,38.34,4.13a337,337,0,0,1,73.68,19.91c8.39.79,16.75,1.36,25.09,1.81,25,1.35,49.81,1.58,74.77,3.13Z" transform="translate(-725.41 12.2)"/><path class="cls-5" d="M2113.8,693.51c-39.89-.87-79.26-4-119-8.8a190.2,190.2,0,0,1-23.74-4.85c-100-36.14-204.17,2.22-305.52,12.19a181.84,181.84,0,0,1-43.32-.11c-61.38-7.67-120.56-17.54-181.76-15.59q-14.21.49-28.49,1.63t-28.67,3c-49.32,6.58-96.45,19.73-145.45,24.64-11.59,1.17-23.19,2.2-34.82,3-34.89,2.41-70,2.77-105.79-1.34-51.51-6.58-100.83-12.06-150.81-14.45q-14.25-.69-28.49-1.69t-28.47-2.33q-11.71.14-23.47.44c-23.52.6-47.22,1.73-71.26,3.69-2.19,0-3.29,3-3.29,3,28.77,0,57.54-2.23,86.31-3.14a270.48,270.48,0,0,1,29.53.55q12.94,1.65,25.95,2.8c9.31.87,18.21,1.52,28.42,2.24,81.64,12.23,163.77,14,245.88,10.49q17.6-.75,35.19-1.8c47.39-4.16,92.33-11.83,140.55-19.51,12.6-2.19,25.12-3.71,37.56-4.68s24.81-1.37,37.13-1.32c58.32.43,115.23,16.49,173.8,16.12,11.68,0,23.43-.75,34.43-1.74,107.26-10.57,218-45.64,323.78-9.23,10.42,1.5,20.81,2.95,31.22,4.28,31.23,4,62.61,6.94,94.35,6.56Z" transform="translate(-725.41 12.2)"/><path class="cls-5" d="M2115.89,701.56c-9,.08-18.06.11-27.5,0-24.35-2.18-48.45-5.16-72.56-8.61-8.09-1.18-16.17-2.42-25.22-4.28-105.33-39.47-214.93-4.39-321.77,14.3a229.55,229.55,0,0,1-32.35-2.26c-60.28-6.58-117.27-18.63-177.71-18.65-12.06.37-24.13,1.08-36.22,2-60.42,4.81-121,16-180.92,24.23-12,1.18-24,2.29-36,3.24s-24,1.74-36.09,2.29c-72.34,3.29-143.57-4.38-215-9.83-8.89-.77-19.85-2-29.27-3.28q-13.42-1.87-26.78-4.53c-7.73-.35-15.59-.48-23.52-.53-31.74-.17-64.14.69-86.79,9.5,7.67,1.56,16.44.78,24.11.78,17.54-1.56,35.07-4.67,52.61-5.44,10.59,0,21.08.2,30.64,1.07,9.6,2.07,19.2,4,28.83,5.71,10.32,1.76,22.37,3.43,32.42,4.59,92.18,9.81,184.82,6.85,277.07.47,14.05-1.38,27.55-2.55,41.15-3.91,52-8.8,104.24-14.85,156.49-16.16q15.68-.39,31.35-.2c52.45.79,103.81,10.82,155.63,16.67,10.33,1.21,20.67,2.25,30.1,4a17.28,17.28,0,0,0,14.2,3.3c116.18-24.11,225.77-55.9,339.41-21.41q11.84,1.8,23.51,3.63c15.56,2.42,31.09,5,46.57,7.5,16.83,1.73,30.63,2,44.25,2.18Z" transform="translate(-725.41 12.2)"/><path class="cls-5" d="M2114.5,725.7c-9.61-.53-19.22-1.09-28.89-1.69q-17.88-2.51-35.74-4.75c-12-1.58-24-3.05-38.07-6.25-99.11-24.36-199.95-3.54-296.39,28.24-25.21,8.77-54.8-1.1-81.63-8.84-11.31-3-24.09-4.24-36.83-5.76a125.83,125.83,0,0,1-22.12-5.1c-106-16.47-214.52-11-320.62-3.37-11.81.61-23.63,1.28-35.22,1.85-46.37,2.3-92.67,5.32-139.25,8.06-47.13,2.19-94.26,1.1-141.25.6-8.79-.56-17.49-1.33-26.2-2.35-9.31-.67-18.57-1.55-27.84-2.71a154,154,0,0,0-25.8-.68c-27.07,1.33-54,4.43-80.3,8,25.48-.59,51-4.28,76.91-5.76,8.6-.44,17.25-.63,25.14.58q15.16,2.83,30.55,4.8c10.38,1.37,21,2.54,32.6,3.81,18.93,1.42,38.66,3.61,57.29,2.51,77.6-3.95,154.4-10.65,231.42-13.29q19.25-.66,38.59-1c93.86-5.43,187,2.24,281.24,6,5.29.64,12.1,2.39,17.82,2.86,9,1.36,19.23,2.39,29.64,3.34s20.83,1.87,30.17,4.62c35.3,11.76,75.85,22.72,108.73,8.47,87.68-37.26,185.22-53.7,277.22-30,13,3.22,24.25,4.76,35.4,6.36s22.05,3.13,33.06,4.87q13.31,1.54,26.56,3.38Z" transform="translate(-725.41 12.2)"/><path class="cls-5" d="M2102,738.24q-13.87-1.13-27.91-2.14c-12.78-2-25.63-3.69-39.5-6.48-93.42-24.53-189.87-8.09-280.84,27-39.46,14.25-85.49,4.38-125.5-10.42-12.91-2.7-26.63-3.74-40.28-4.84s-27.26-2.27-39.58-3.62c-9.11-.26-18.37-.77-27.79-1.27-78.11-1.77-155.92-6.16-233.58-9.27-12.2-.28-24.66-.14-37.06.14-85.61,1.12-171.22,11.86-257.92,17.23-16.44,1.1-32.88-1.1-49.64-2.13-10.16-.82-20.27-1.9-30.32-3.13s-20.06-2.61-30-4a166.26,166.26,0,0,0-27.24-1.92,417.87,417.87,0,0,0-83.07,10.1c7.67.62,14.25,1.25,21.92.62,9.32-.94,18.36-1.87,27.4-2.58s18.08-1.17,27.4-1.17c23,1.17,45.57,3.66,68.18,5.92,7.54.75,15.08,1.48,22.65,2.12a196,196,0,0,0,53.84.57c89.76-8.44,177.91-19,266.28-18.36,12.78,0,25.63.12,38.23.72,76.89,4.49,153.61,12.16,231.56,13.22,13.49,0,27,.12,40.83,1.31q11.68,1,23.32,1.89c7.67.62,15.34,1.2,21.83,1.91,48.7,15.74,101.31,30,148.44,11.36,83.3-32.88,174.26-53.7,261-28.71,14.38,3.86,27,5.82,39.52,8q15,1,29.86,2Z" transform="translate(-725.41 12.2)"/><path class="cls-5" d="M2079.79,749.6q-15.47-.66-30.86-1.4c-88-30-182.28-14.62-267.77,21.55-50.42,23-108.5,14.25-159.65-4.32-10.69-3.46-21.82-4.84-32.87-6.67a231.06,231.06,0,0,0-39.21-3.58l-32.81,0-32.81,0c-11.34.2-22.49.13-33.69-.27-41.6-1.57-82.15-7-123.44-10.38q-13.93-1.56-27.86-3.1c-46.35-5.14-92.5-9.33-139.08-4.54-71.24,6.58-141.38,23-213.65,22.49-10.34-.55-20.54-1.34-30.7-2.18-20.33-1.69-40.56-3.62-60.89-4.57-10.4.46-20.81,1.21-31.23,2.11-20.82,1.82-41.65,4.13-62.47,6.11,14.25,0,28.5-.66,42.74-1.24s28.5-1.07,42.74-.74a817.56,817.56,0,0,0,90.2,6.83c10.92.07,21.37.08,33.61-.44,65.8-4.27,130.46-19.61,196.22-26.19,75.62-7.67,149.05,14.25,223.23,19.27,12,.93,24,1.71,36,2.2s24.14.71,36.31.52q13.48,0,26.89,0l53.69-.09c13.74.08,26.74.61,38,3.1,11.8,1.83,23.64,3.17,35.47,4.51,54.52,22,118.09,29.7,171.8,5.59,83.3-36.17,175.36-52.61,261.36-20.87q12.22.66,24.49,1.45Z" transform="translate(-725.41 12.2)"/><path class="cls-5" d="M2069.12,768.93a169.46,169.46,0,0,1-34.92-5.31c-88.64-27.85-174.13,6.13-261.81,29.14-51.51,14.25-104.12,7.67-153.5-10.75-10.47-2.1-20.91-2.81-31.31-3.78s-20.75-2.17-31-3.67c-11.69-.44-24.79-.41-37.9-.39q-34.22.06-68.47.07c-7.8-.05-15.54-.09-23.52-.22-10.45.28-22.51.28-33.47-1.3-76.72-5.18-152.34-29.29-229.06-24.91-68,4.38-132.61,30.69-201.1,30.41-8.17-.21-17.2-.33-25.61-.67-24.5-1.2-48.85-3.09-73.43-4.49-9.46.09-18.86.2-28.27.29-28.2.3-56.56.3-83.69,6.2,25.48,0,51-1.18,76.45-1.55,8.49-.12,17-.16,25.48,0,26,2.62,52.06,4.07,78.11,4.67q13,.3,26.05.33c59.14-2.27,115-15.42,175.32-27.48,19.73-3.29,38.36-7.67,58.09-5.48,63.57,7.67,123.85,21.92,186.88,26.2l34.09,2.43c10.84.08,21.43.06,32,0l71.48-.13c7.94,0,15.88,0,23.75,0q14.87,2.22,30,3.65t30.36,2.24c86.84,28,180,22.56,266.58-12.51,49.32-20.82,105.22-19.73,156.72-7.31,15,3.57,29.62,7.84,43.83,9Z" transform="translate(-725.41 12.2)"/><path class="cls-5" d="M2067.91,782.78c-12.27-.94-24.53-4-37-7.29-83.18-26.56-161,15.09-243.2,34.81-54.8,13.15-109.6,8.77-162.33-7.18-13.77-3.63-26.78-4.92-39.76-6.3q-15.86-1-31.7-2.77t-31.65-4.31q-14.07-.16-28.32-.2l-57-.17c-9.5,0-19.08-.1-29.45-.6q-15-.88-30.09-1.84c-10.94-.9-21.59-1.72-33.93-3.1-57.75-5.31-114.74-30.52-173.92-23.95-11.69,1.1-23.29,2.83-34.83,5s-23,4.65-34.5,7.32-22.91,5.48-34.37,8.19-22.94,5.32-34.46,7.59c-23.05,4.53-46.3,7.66-70,7.43q-11.8,0-23.59-.21c-23.58-.49-47.14-1.87-70.71-4.44-10.41.18-20.76.73-31.06,1.47-30.93,2.2-61.55,6.06-92.78,6.61,30.41,1.1,60.21-.28,90.32-1.34,10-.36,20.1-.68,30.24-.86,30.32,2.69,60.52,4.33,90.76,5,7.56.16,15.13.26,22.74.28,9.76-.24,19.39-.86,28.92-1.8s19.25-2,28.6-3.46c80-15.9,160-43.3,241-14.79q11.88,2.18,23.78,4.11c15.87,2.54,31.81,4.6,48.06,5.66,10.87.44,24.22,1.72,35.09,2.24s21.72.83,32.6,1.35,20.65.57,30.44.51l29.37-.18,29.37-.16q18.17,2.44,36.32,4.06t36.31,2.52q15.11.69,30.24,1.58c65.26,15.57,133.22,29.82,199,7.9,75.62-25.21,156.73-52.61,235.47-25.68,9.47,3,19,3.64,28.63,4.44Z" transform="translate(-725.41 12.2)"/><path class="cls-5" d="M2076.24,810.63c-10-.67-19.65-1.29-28.81-3.15-44.88-12.52-90.91-15.81-138-4.85-98.64,25.21-196.18,44.94-294.82,19.32q-17.81-.59-35.55-1.2-11.75-.44-23.46-1.22c-17.71-1.32-34.15-4.29-51.69-4.29-47.13,0-93.16-1.78-140.3-5.23-10.4-.31-23.16-1.27-31.61-.79-61.54-1.11-120.72-23-183.19-8.78-43.84,9.86-85.49,21.92-130.28,17.39-13.67.44-25.65.6-37.31.73-35,.4-70,0-105.43-1.57q-20.24.27-40.49.57t-40.5.64c-8.77,0-18.63-.59-27.4-1.19-7.67-.59-19.73-.59-24.11,4.16q59.73.08,119.44.05l39.8,0c24.57,1.83,49.25,2.58,74,2.65,8.25,0,16.54,0,25.24.08,59.37,8.29,117.46-3.77,177.74-12.53,49.32-7.67,96.45,5.48,145.16,4.21,9.83-1.79,23.62-.37,34.58.82,49.32,3,97.54,5.34,146.86,5.94,18.63,0,37.26,1.78,56.12,3.44,8.8.4,19.1.81,26.46.81l34,.6c98.2,25.84,195.74,1.73,295.48-21.29,46-11,89.87-2.19,134,9.28q14.21.74,28.42,2.11Z" transform="translate(-725.41 12.2)"/><path class="cls-5" d="M2084.83,823.71q-13.11-1.88-26.22-2.93c-8.74-.72-17.17-1.87-24.88-4.4-37.76-12.65-77.22-13.74-116.67-5-99.74,23-196.18,43.84-294.35,23.56q-17.61.18-35.06.39c-7.52-.19-16.92-.51-25.47-.78-41.87-1.32-83-2.89-124.07-5.59-13.7-.81-27.47-2-41.3-3.31s-27.72-2.64-41.65-3.72c-96.79-9.45-192.15,12.47-288.59,15.76-18.63,0-36.17-5.48-54.8-7.67-7.67-1.1-16.44,0-23.61-.22-11.91.13-24.95-.29-37-.54s-24.08-.72-36.18-1.47q-21.2.08-42.12.25-41.88.35-83.76.73l-14.93.07-14.93.06-14.93.06a23.32,23.32,0,0,0,9.29,5.49c7.49,2.56,17.29,3.12,27.7,2.92,5.21-.1,10.56-.39,15.86-.72Q857.12,836,917,835.52c13.49-.07,27.53.07,42.91.51,10,.33,20.12.5,30.84.77,48.39,5.29,94.42,20.63,143.74,13,76.72-11,150.15-23,226.13-17.16,7.58.82,15.16,1.68,22.72,2.54,22.69,2.57,45.29,5.08,67.9,6,32.88.54,66.25,2.16,99.92,2.44,8.42.07,16.87.06,25.4-.07q14.7-.39,29.44-.74t29.52-.75c94.1,20.91,185.07-7.59,279.33-22.93,43.84-7.67,87.68-3.29,129.48,9.18q14.29.83,28.6,2.45c5.69.36,12.17.29,18.64.22Z" transform="translate(-725.41 12.2)"/><path class="cls-5" d="M2098.78,844.55l-28.83.13c-9.61,0-17.43-.48-25.21-.94-12.19-.68-24.09-3.43-33.87-6-27-6.59-55.45-6.59-82.85-4.39-94.26,6.58-186.32,35.07-282.06,19.42-12.61-1-24-.75-35.45-.55l-34.27.85c-8.1.2-16.19.34-24.24.35s-16.07-.09-24-.38c-29.59-.57-58.09,1.72-87.68-1.14-16.14-1.59-32-3.26-47.77-4.79-7.88-.76-16-1.4-23.93-2a197.2,197.2,0,0,0-48.85.33c-100.83,8.77-197.28,31.78-300.3,6.58-13.15-3.29-26.3-2.19-39.31-3.85-11.43-.23-22.24-.37-33.07-.63l-29.85.25q-44.77.39-89.52.85c-8.81,0-17.85-.1-26.89-.2-18.08-.21-36.17-.5-54.25-.5,9.86,10.86,49.32,5.15,71.24,5.15l13.07,0q49.9-.52,99.77-.85l19.95-.13c13.28-.08,27.38,0,44.35.83,58.5,5.62,114.39,23.15,173.57,17.67,71.24-6.58,141.38-23,212.42-16.59,7.94.63,15.83,1.3,23.74,2,15.82,1.35,31.71,2.72,47.69,3.91,9.86.57,20.82-1.14,30.69-.57q37.81,1.29,75.57,1.23c8.81,0,18-.14,26.32-.26,14.27-.2,28.52-.44,42.91-.92,7.19-.24,14.52-.45,22-.64,94,14.06,185-15.54,278.14-19.92,30.69-2.19,61.38,2.19,90.55,8.83,11,1.8,23,2.41,38,2.3l16.45-.13,32.91-.27Z" transform="translate(-725.41 12.2)"/><path class="cls-5" d="M2114.39,865.67l-17.62.17-17.62.16-36.91.32c-12.22.09-25.88.15-36,.1-91.34-24.33-182.31,5.26-273.27,7.45-25.21,0-49.32-2.19-74-3.09-9.65.43-19.23.89-28.8,1.35q-28.69,1.36-57.57,2.28-17.36.35-34.68.48c-38.51.28-77-.32-115.76-2.15-9.7-.46-19.43-1-29.23-1.6-80.81-7.13-160.82,10.4-241.93,11.5-59.18,1.1-118.37-13.15-178-15.09-14.56-.19-29.89-.47-43.59-.49H916.3q-32.78,0-66.09.36l-16.36.14q-24.55.22-49.09.53l-16.36.21c-5.41.23-10.89.23-16.37.23,16.44,5,36.17,6.52,56.31,6.17,3.91,0,7.81-.06,11.65-.15q17.39-.42,34.78-.78l17.4-.34,19.14-.27,19.15-.23q21.28-.29,42.56-.53c20.41.37,40.14-.73,61,1.46,39.46,4.38,77.82,8.77,117.27,9.86,86.58,2.19,172.07-15.34,258.82-9.23q13.9.67,27.83,1.33t27.9,1.23c31.24,1.25,62.47,2.13,93.7,2.32q15.61.09,31.22-.05c30.42-.29,60.53-1.81,90.62-3.78,10.21-.56,22.67.24,35.29.77,12.21.83,25.36,1.93,37.41.83,92.06-7.67,183-25.21,275.1-5.73,10.1-.08,21-.14,30.94-.25q29.86-.32,59.73-.74l19.23-.33Z" transform="translate(-725.41 12.2)"/><path class="cls-5" d="M2124.37,879.32q-38.85,1-77.72,1.79l-25.91.48c-8.66.18-17.27.41-25.89.59a139.21,139.21,0,0,1-22.84-1.35c-38.51-5.86-76.86-16.82-116.32-12.44-53.7,6.58-105.22,16.44-158.41,16a308.77,308.77,0,0,0-31.94,2.1c-19.55,2-39.19,3.35-59.16,3.51-12.16.11-25.08.33-36.76.29-46.71-.15-93.15-.81-139.86-3.38-11.68-.64-23.38-1.41-35.21-2.3-75.69-8.6-150.22,1.26-225.84,7.84-52.61,3.29-104.12-7.67-156.73-9.86-23-2.19-47.13,0-69.68-1.47q-15.55.13-31.1.29t-31.1.35l-19.3.07q-48.23.23-96.51.42c14.25,9.69,34,8.88,51.51,8.88l19.07-.24,19.06-.24q30.47-.66,60.92-1.14c10.15-.16,20.3-.31,30.56-.44,66.58-2.1,134.53,6.67,201.39,6.67,74.53,0,149.05-8.77,223.24-6.9,11.36.36,21.87.95,32.91,1.7q14.91,1.22,29.91,3c15.34,1.61,30.69.81,46,.81,26.85-.4,53.7.81,80.59,1.75,9,.31,17.93.6,26.89.79,33.39.75,66-2.11,98.71-6.16,11.12-1.28,24.88-1.49,38.89-2,77.14-7.23,153.86-21.48,231-1.5a181.72,181.72,0,0,0,22.78,2.65q13.56.13,27.27-.27,15.09-.31,30.2-.65,45.32-1,90.82-2.4Z" transform="translate(-725.41 12.2)"/><path class="cls-5" d="M2126.46,888.95q-50,1.56-99.92,2.57c-11.56.13-23.53.22-34.54.39-8.6.42-17.05.45-25.38.19-43-8.36-84.62-16-128.46-12.75-44.94,3.29-88.78,12.06-133.62,12.58-11.76.73-21.91,2.06-32,3.24a449.76,449.76,0,0,1-61.37,3.46c-11.74,0-24.13.09-35.73-.13-46.36-.87-92.4-3.2-138.43-5.89-11.69-.54-24-1-36.33-1.35-74.36-2.05-150,2.33-224.51,4.52-77.82,3.29-153.44-8.77-231.28-6.42-10.76.07-21.41.17-32.05.28q-31.93.33-63.87.83l-19.3.12q-28.95.18-57.92.41,26.3,2.72,53.56,4.24,9.08.52,18.24.93c25.06,1.56,49.2,1.95,73.58,2,8.13,0,16.28,0,24.5,0,123.85-.27,246.6,6.3,370.45-3.56,21.92-1.1,44.94,0,66.53,1.28,8,.43,15.42.9,23.24,1.31,7.3.42,14.62.77,22,1,49,1.08,97.91,3.94,146.83,5.44,12.23.37,24.47.66,36.76.79,13.68,1,25.74-.59,38.89-.59,9.5-.54,19-1.41,28.41-2.48s18.88-2.33,28.29-3.64c77-4.18,154.82-18.43,230.39,1a162.49,162.49,0,0,0,23.1,2.52,533.29,533.29,0,0,0,78.13-2.21l23-.72c23-.73,46-1.47,69.07-2.09Z" transform="translate(-725.41 12.2)"/><path class="cls-5" d="M2126.64,914.46q-16.6.61-33.19,1.12c-11.32.54-22.47.93-33.81,1.51-49.38,7.23-98.72,9.52-147.51,5.38q-14.64-1.24-29.2-3.27a332.43,332.43,0,0,0-126.06-9.9c-9.46.56-17.71,1.48-25.87,2.44-32.62,3.86-65.23,8.22-98.73,8.31-11.09-.67-23.21-1-34.91-1.55-63.9-3.07-128-6.94-192-8.67-14.73-.42-28.84-.73-44.08-1-114.08-2.67-229,1.45-343.57,5q-17.19.53-34.36,1c-22,1.71-42.83.61-65.26,1.77l-23.19.6L825.72,919l-19.31.45-19.31.46q7.95.61,15.91,1.13t16,1l26.8,0,26.8,0c55.92,1.12,110.72-1.07,167.05-3.41q18.56-.63,37.14-1.12c111.45-3,223.13-2.58,334.51-1q17.64.12,35.27.46c58.78,1.13,117.55,4.08,176.21,8.42,11.35.26,22,.28,33.5.08,36.51-1.58,72.55-6.44,109.08-8.05,9.13-.4,18.3-.61,27.52-.49a289.63,289.63,0,0,1,30.11,3c29.64,4.41,58.21,12.22,88.62,16.33,55.9,6.58,108.5-9.86,163.82-12.74,8.57-.45,17-.75,25.52-1.13q12.51-.35,25-.65Z" transform="translate(-725.41 12.2)"/><path class="cls-5" d="M2123.28,931c-9.65.16-19.79.59-29.48.78-100,13.34-198.66,17.73-298.61-.08-10.57-.44-20.87-.6-31.32-.8q-45,.35-89.76,2c-11.34.09-22.45,0-33.64-.08-74.12-.51-147.56-7.44-222.08-8.92-10.59-.08-21.19,0-31.89.24-109.24-2.37-218.55-4.2-327.87-.05-12.24.61-24.43,1.22-36.6,2-50.8,3.7-100.12,8.09-150.74,5.08-7.86-.05-15.71-.1-23.61-.21s-15.65-.07-23.48-.14q-7.32-.05-14.68,0t-14.75.1c4.71.94,9.66,1.75,14.79,2.45s10.47,1.29,16,1.79c8.19.6,16.74,1.22,25.28,1.69,63.44,5.05,127,1.76,190.26-6.49,11.33-.86,22.66-1.59,34.09-2.35,79-4.09,158.25-4.63,238,.74,25.21,2.19,49.32,1.1,74.53-.79,14.8-.74,29-1.11,43.29-1s28.5.74,43.29,2c44.94,4,87.68,6.43,132.78,7.61,15.34.36,28.64.45,41.75.52,9.8.32,19.68.47,29.61.51q18.56-.3,37.06-.51t37-.31c55-1.44,109.81,10.61,164.61,13.9,55.9,4.38,110.7-11,166.59-14.25,12.06,0,25.21-1.1,37-.94Z" transform="translate(-725.41 12.2)"/><path class="cls-5" d="M2118.7,937.81c-117.24,15-234.52,19.36-351.37,1.31-11.95,0-24.6-.3-37-.38q-18.1.09-36.3.34c-13.15-.12-26.06-.25-38.94-.4-13.86-.15-29.17-.52-43.86-.81-49.3-2.25-97.53-4.7-147.94-10.83-12.6-1.23-24.66-2-36.72-2.14a332.57,332.57,0,0,0-36.72,1.53c-97.91,2.23-195.33-.93-292.54,1.21q-18.23.4-36.46,1.1c-78.72,7.61-157.63,12-236.53,8.73a58.94,58.94,0,0,0-12.47,1.29,71,71,0,0,0-11.64,3.6q9.45.28,18.92.51c87.39,2.25,175.07,6.63,261.6-9.45,10.07-.91,20.13-1.73,30.18-2.37s20.1-1.09,30.15-1.28c77.82,0,156.73,11,234.44,2.48,9.1-.9,19.46-1.53,28.6-2.14a356.12,356.12,0,0,1,36.17,0c58.09,3.68,111.79,13.48,170.28,13.34,11.74.12,24.87.46,36.51.55l34.93.27,34.94.29,23.28.15c8,.16,16.39.52,24.09.6,117.65,20.63,232.73,16.25,350.53-2.07Z" transform="translate(-725.41 12.2)"/><path class="cls-5" d="M2101.47,964.55c-58.37,4.67-115.36,21.11-173.45,17.83-65.76-2.19-129.33-17.54-194.89-17.72-12.83-.14-25.55-.23-38.26-.32l-76.25-.52c-11.65-.18-23.08-.3-35-.61a98.78,98.78,0,0,1-23.82-1.54C1511.55,951.53,1463.6,948,1416,949.39c-11.89.34-23.77,1-35.71,1.86-83.58,7-165.78.44-249.08-1.75-8.22-.18-16.55.13-24.81.71-101.23,25.59-204.25,23.4-307.28,19C895.6,978,991,986.76,1087.4,960.46c12.06-3.29,25.21-4.38,37.26-4.38,9.45-.27,18.92-.21,28.41.1,66.38,2.15,133.4,16,199.63,5.93,9.16-1.15,18-2.45,27.19-3.65,8.7-1.34,17.5-2.62,26.45-3.78a275.82,275.82,0,0,1,53.7-.7c39.46,3.49,74.53,14,112.6,15.05,12.15.13,24.12.18,36.27.29q48.33.16,96.68.41c11.19.17,22.92.49,33.6.55,15.68-1.05,31,1.14,46.37,3.33,105.22,16.44,206,15.34,308.14-2.14Z" transform="translate(-725.41 12.2)"/><path class="cls-5" d="M2080.4,989.95c-109.63,16.54-220.33,8.87-329.43-1.62-13.36-.51-25.87-.8-38.77-1.15q-51.42-.38-102.83-.45-19,0-38.09.08a1237.33,1237.33,0,0,0-177.46-6.36q-17.62.68-35.15,1.92c-24.67,2.21-48.78,4.41-74,3.31-34.93-2.88-69.56-5.6-104.07-7.06q-17.25-.73-34.47-1c-48.87-.71-96,9.15-145.32,17.92-70.14,12.06-135.9-7.67-205-5.48-2.19,0-3.29,2.19-5.48,3.29,77.82,2.19,154.53,18.63,234.54,5.48,43.84-6.58,85.49-18.63,129.78-15,12.32.67,24.57,1.55,36.8,2.49,48.93,3.73,97.81,8.09,146.55,3.63q16-1.48,32-2.73c64.05-4.89,128.57-5.61,191.85,4.24q20.52.12,41,.12,51.16,0,102.33.12c12.59.2,24.51.31,37.46.62,109.7,6.51,219.3,19.67,328.89,2.55Z" transform="translate(-725.41 12.2)"/><path class="cls-5" d="M2059.66,998.83c-115.2,16.42-230.28-1.11-345.67-4.37q-14.88-.09-29.75-.13-44.63-.13-89.29.08l-35.73.16q-13.29-1.25-26.55-2.37c-56.87-7.8-113.54-5.28-170.28,0-11.38,1-23,2.06-34.06,3.45-45.18,2.1-90.44-1.58-135.72-5.57-11.32-1-22.65-2-34-2.93-16.36-1.5-32.8-3.69-50.34-.4-112.89,24.11-220.29,18.63-331,16.44,81.1-2.19,160,18.63,242.21,5.48,53.7-7.67,105.22-9.86,157.82-6.18,12.24,1,24.48,2,36.72,2.85s24.48,1.69,36.72,2.23a444.15,444.15,0,0,0,59.12-3.73c11.46-1.22,23.87-1.95,35.88-3.11,10.31-1,20.71-2.18,31-3.23,36.16-4.27,73.43-6.11,110.87-2.66,9.15.52,18.27,1.11,27.44,1.84s18.26,1.47,27.43,2.34c13.41,1.29,27,1.38,40.64,1.47q55.22,0,110.43.11c13.32.14,27.26.36,40,.48,106.77,3.19,212,16.34,318.4,3Z" transform="translate(-725.41 12.2)"/><path class="cls-5" d="M2044.67,1016.57c-107.87,9.65-216.38-4.6-323.81-5.59-11.21,0-23.72.11-35,.5-40.55.78-80,3.88-120.07,3.31-8.85-.55-17.68-1.21-26.51-1.89-44.15-3.41-88.14-7.5-132.89-3q-17.67,1.6-35.25,3.29t-35.08,3.25c-12,1.62-24,3.31-36,4.91s-24,3.11-35.95,4.38a443.92,443.92,0,0,1-55.18,2.35c-9.09-.17-18.14-.6-27.28-1.25-30.62-3.93-61.31-8.32-92-7.22-106.31,2.19-213.72,6.58-320,2.19,114,9.86,228,5.48,343,11,16.44,0,34,1.1,50.9,5.14,9.68,1.27,18.88,2.53,28,3.62,50.42,5.48,97.54-12.06,147.4-17.32,10.68-1,21.95-2.26,32.93-3.28,53.42-4.2,106.29-6.21,159.85-2.39a215.16,215.16,0,0,1,31.29,4.53c29.08-.38,58.14-1.35,87.23-2.1q14.54-.38,29.1-.65c7.65-.45,15.24-.65,22.8-.71,8,0,15.74,0,23.88.18,105.58-.18,209.69,6.4,315.11,2.47Z" transform="translate(-725.41 12.2)"/><path class="cls-5" d="M2040.11,1027.87c-108.8-.56-217.3-2.75-326.16-1.38-8.32,0-16.55,0-24.76.06-16.42.15-32.8.58-49.15,1.59-9.43.39-18.84.73-28.22.95-28.15.65-56.05.18-83.43-3.49q-16.28-1.18-32.78-1.74c-33-1.13-65.83-.64-98.89.9q-16.53.77-33.13,1.87c-49.33,2.39-97.13,18-146.58,19.35a220.2,220.2,0,0,1-29.89-1.13c-51.51-6.58-103-13.15-155.63-11-88.78,3.29-177.55,1.1-266.33,0,141.38,8.77,283.86,2.19,424.92,20,10.83.69,21.7,1,32.11.85,40.55-1.1,78.91-13.15,119.92-17.41,12-1.37,23.65-2.47,35.71-3.69,33.85-2.46,67.59-4.2,101.28-3.65a304,304,0,0,1,31.84,1.85,209.87,209.87,0,0,0,59.79,4.95q16.71-1,33.43-1.92c11.21-.51,22.38-1,33.56-1.41q16.13-.71,32.36-1t32.5-.35c112.56-1.46,225.45.73,338.07.82Z" transform="translate(-725.41 12.2)"/><path class="cls-5" d="M2050.54,1045.53c-102.79-8.36-206.91-.68-309.52,2.7-13.73.28-26.3.46-39.63.8q-40.39.62-80.66,2.58c-9,.44-18.25.88-28.52,1.19-33.53-.28-68.6,8.49-101.22-1.5-7.67-2.72-16.71-5.5-27.68-5.94a390.79,390.79,0,0,0-42.72.88c-12.33.75-24.63,1.52-37,2.32-56.84,3.3-112.74,17.55-169.75,19a326.19,326.19,0,0,1-34.36-.83c-139.19-19.73-278.38-15.34-418.67-11,77.82,1.1,154.53-2.19,232.35,2.19,65.76,4.38,131.52,12.06,196.92,14,13.62.24,27.27.3,40.2.09,51.7-.84,103.37-4.89,155-13.4,12-.59,24.49-1.32,36.41-1.88,14.8-.75,27.76-.37,37,2.29,57.3,18.67,116.48-2.15,174.33.19q15.82-1,31.67-1.68t31.72-1.18c10.58-.32,22.51-.76,33.24-1,109.66-5.07,219.26-18.22,328.92-3.29Z" transform="translate(-725.41 12.2)"/><path class="cls-5" d="M2071.46,1061.31c-110.56-18.66-221.25-1.12-331.4,5.66-10.82.11-23.94.69-35.66,1q-13.72.2-27.44.45c-9.24.14-18.49.29-29,0-50.87-1.63-100.19,1.66-150.61,6-14.25,1.1-28.5,0-42.74-2.19-14.25-3.29-27.4-5.48-42-5.71-11-.5-22.5-.26-34,.34-57.42,3-114.2,15.06-171.74,14.15-9.45,0-18.92-.24-28.49-.68-44.94-1.51-88.78-8.09-133.72-13.57-94.26-9.86-187.41-1.1-280.57,2.19,140.29-2.19,280.57-4.38,420.21,16.37,10,.38,19.91.53,29.88.39s20-.59,30-1.41c47.49-4.57,95-9.89,142.48-11.55a201.6,201.6,0,0,1,25,1c30.94,6.2,60.53,11.68,92.32,8.39a1074.13,1074.13,0,0,1,179.33-7.49c12.57-.28,25.14-.52,37.82-.74,63.42.57,124.8-11.49,188.36-15.87,58.09-3.29,115.08,3.29,173.23,8.82Z" transform="translate(-725.41 12.2)"/><path class="cls-5" d="M2099.45,1082.28c-46.21-8-92.35-9.75-138.49-8.58-11.54.29-23.15.89-34.68,1.52-57.43,3.6-114.43,12.37-173,13.19-9.84-.08-20.11.24-30.07.6-11.06.24-22.27.52-34.86,0-68.26-4.73-136.21,2.95-204.16,8.43-13.15,1.1-25.21,1.1-38.36-2.19-24.11-5.48-46-6.58-70.2-7.17-8.65-.26-18.72.26-28.94.8q-61.27,3.25-122.36,3.67-18.34.15-36.68.07c-72.82-1.75-145.15-10.52-217.49-14.91-65.76-3.29-131.52,4.38-197.28,9.86,74.53,1.1,148-12.06,222.49-4.38,61.38,6.58,120.56,13.15,180.74,15.17q17.19.27,34.36.34c38.17.13,76.29-.58,114.32-2.51,9.51-.48,19-1,28.39-1.61,35.64-1.53,70.72,8.34,105.79,9.43,76.72,1.1,152.34-19.73,229.49-9.2a264.56,264.56,0,0,0,33.9,1.1c68.69.43,138.84-.66,206.6-14.6,10.25-1.35,20.43-2.15,30.63-2.64,50.35-1.58,99,7.21,149,9.72Z" transform="translate(-725.41 12.2)"/><path class="cls-5" d="M2116.82,1104.58c-14.53,1.64-27.68.55-41.93-1.64-12.74-1.51-25.43-2.53-38.08-3.17s-25.26-.89-37.83-.84c-43.55,1.82-85.2,8.4-130.13,16.07-38.73,6.58-76,3.9-113.13,1.29-9.28-.65-18.57-1.31-27.94-1.89-81.42-13.65-162.52-6-244.72,5-51.51,6.58-100.83-8.77-152.49-10.33q-17.79.35-35.58.53c-35.58.37-71.18.28-106.78-.1-11.87-.13-24.58-.52-36.61-.79-123.38-12.33-246.13-15.62-370-2.47,122.75-7.67,244.41-3.29,366.63,7.52,13.06.11,27.2.51,41.07.8q49.39.29,98.79.16,16.47-.06,32.94-.19c51.31,1.58,101.72,18,153.24,12.54,83.3-9.86,166.59-25.21,248.55-7.38a308.65,308.65,0,0,0,36.34,3.07c70.08,2.53,139.54-.34,212.7-14.32,12.06-2.19,23-3.29,34.74-2.33,12.68,0,25.81.09,38.79.64,12.74.7,25.47,1.79,38.21,3.37,13,.32,25.3.22,37.27-.05Z" transform="translate(-725.41 12.2)"/><path class="cls-5" d="M2122.89,1115.41c-11.34.36-23.44.28-34.42.87q-16-1.18-32-1.73t-32-.63c-11-1.13-23,0-34,1.06-57,5.48-111.79,19.73-168.78,17.54-24.66,0-49.32-2.74-74.07-5.29a245.67,245.67,0,0,1-26-3.9c-81.83-20.41-165.12.42-247.32,8.09-48.22,4.38-95.35-6.58-143.72-13.19q-14.24-.14-28.66-.12-57.62.06-115.32,0c-12.82,0-26.25-.23-39.2-.33-120.27-9.4-241.93-13.79-362.48-1.73,121.66-3.29,243.31-3.29,364.63,6.27,13,.07,25.81.1,38.64.12q57.73.12,115.46.45c9.62.05,19.17.2,27.94,1.36,47.36,8.24,95.58,18.1,144.9,12.62,89.87-9.86,179.74-31.78,266.92-5.47,9.29,1.23,18.6,2.6,28,3.93s18.83,2.64,28.42,3.73c11,1.1,23,2.19,34,1.1,65.76-8.77,129.33-21.92,194.86-18.1,9.76.37,19.93.48,30,.44,9.83.06,19.68-.1,29.56-.59,11.58-.51,24.34-.79,36-1.2Z" transform="translate(-725.41 12.2)"/><path class="cls-5" d="M2122.1,1140.92c-12.65.37-25.58.56-40.29.92-9.22.32-18.42.75-27.61,1.25-94.81,12.6-188.12,16.53-283.38,10.86-11.91-.71-23.92-1.75-36.85-4.9-77.75-24.18-157.76-9.94-238.86,6.5-60.28,12.06-118.37,1.1-174.57-16q-13.93-.78-28-1.2-56.26-1.64-112.51-1.37-18.75.07-37.55.29c-114.28-4.76-227.16.72-341,3.6l-16.56.08c-2.19,0,0,2.75-2.19,4.12,8.84.64,17.9,1.08,26.78,1.54,104.73.14,209.95-5.34,314.66-4.86,11.75-.26,23.79-.3,35.8-.26,41.24-.28,82.46.52,123.66,2.18q15.45.62,30.79,1.62c52.46,15.71,107.26,25.57,163.16,20.09,82.2-8.77,162.21-40.55,244.49-17.63,12.7,3,24.94,5.77,36.56,7,34.6,3.21,69.12,7.32,103.65,8.42,63.57,2.19,124.94-12.06,188.45-14.47,8,0,17.5-.35,26.22-.44,15.11-1.13,29.74-.46,42.48-1.12Z" transform="translate(-725.41 12.2)"/><path class="cls-5" d="M2116.38,1150.64q-20.26.31-40.53.84c-13.52.33-27.4.79-42.62,1.62-66.85,3.54-132.61,16.69-200.56,11.21-20.82-2.19-41.4-4.14-61.92-5.71-10.26-.79-20.55-1.63-31.4-3.91-85.32-24.35-170.81-4.62-257.39,9.62a301.34,301.34,0,0,1-149.84-12,134.51,134.51,0,0,0-29.43-5.45q-77.38-3.76-154.69-3c-12.13-.06-24.46-.16-36.17.14-94.57-1.61-187.73,5-282.41,9.78-8.75.16-17.47.26-26.32.43q-12.93,0-25.87,0,13.84.34,27.67.64c9.47,0,18.8.11,28.15.14,91-1.6,180.91-3.79,271.62-7.62,10.85-.64,21.65-1.26,32.66-1.63,10.73-.54,21.47-.94,32.25-1.12,36.72-.55,73.43,2.19,110.1,5.29,12.18,1.16,24.36,2.35,36,5,45.65,14.94,93.87,21.52,143.19,16,94.26-13.15,186.32-39.46,279.22-11.57,13.9,2.86,27.16,3.55,40.41,4.18,92.43,3.36,184.44,3.91,276.3-6.78,9.28-.14,19.49-.49,29.29-.74l28.08-.45Z" transform="translate(-725.41 12.2)"/><path class="cls-5" d="M2105.93,1172.28c-9.13.14-18.62.28-28.09.38-104.14,4.43-209.09,5.54-313.65,3.32-11.64-.43-23.4-2.49-35.39-5.26-79.15-23.94-158.06-3.12-239.17,11.13-57,9.86-115.08,8.77-169-11.13-10.34-3.35-20.94-4.64-31.52-5.94-31.83-3.48-63.61-7-95.4-8.13-30.69-1.1-61.38,1.37-92.1,4.63-10.35,1-20.65,2.11-31,3.19-70.94,6.43-143.27,9.72-214.53,11.19q-14.46.21-28.92.28t-28.94,0c-10.82.27-20.91.59-29.8,1,9.21,0,19.69.06,30.91.12,14.13.23,28.33.49,42.55.69s28.54.24,42.73.33c57-.53,112.87-.53,169.41-6.92,11.5-1.25,23-2.62,34.53-3.88,34.43-4,69-7.27,104-5.08,31.78,2.19,63,6.3,94.22,10,10.39,1.37,20.78,2.69,31.14,5.82,81.78,28,169.46,14.86,253.85-6,59.18-15.34,117.27-5.48,173.93,6.65,12.26,1.92,24.46,2.21,36.66,2.32,97.6.88,195.23.13,292.31-3.58,9.29.08,18.49.1,27.69,0Z" transform="translate(-725.41 12.2)"/><path class="cls-5" d="M2099.1,1184.06c-11,.26-23,.37-33.94.22-92.15.58-184.73,1.74-277,1.76q-17.3,0-34.58-.28c-48-9.39-96.26-20.35-146.67-11.58-98.64,17.54-195.09,44.94-290.86,11.31-11.63-3.52-23.1-5.44-34.56-7.42-34.34-5.54-68.59-11.56-103.11-12.66-31.78-1.1-63.29,1.64-94.63,5.18q-15.7,1.73-31.34,3.62c-42.81,6.54-86.65,6.54-130.49,10.1-8.77.52-17.54.87-26.31,1.11-43.84,1.09-87.68-1-131.52-.3,53.7,13.18,111.79,9.3,167.69,5.43q17.88-1.16,35.76-2.1c12.46-.8,25.37-1.67,37.2-2.13,11.59-.56,23.13-1.51,34.65-2.67,57.58-5.77,114.52-16.58,173-8.36,27.4,4.38,54,8.77,80.61,12.16,8.9,1.26,17.8,2.42,27,5.3,83,27.48,169.63,9.94,256.21-8.69,61.38-13.15,119.46-4.38,178,8q17.3.27,34.64.25c46.24,0,92.54-.59,139.12-2.79,49.32-3.29,97.54,2.19,146.48,2.08,7.86-.19,15.36-.44,22.84-.69Z" transform="translate(-725.41 12.2)"/><path class="cls-5" d="M2096.64,1200.7c-7.6.21-17.22.16-23,.51-99.24-9.25-199-5.52-298.68-2.26-12.45.41-24.85.6-36.78-1.38-84.11-19-166.31-2.56-252.89,13.88-59.18,9.86-118.37,6.58-173.75-9.82q-11.07-1.06-22.17-2.95t-22.19-4.77c-93.16-25.21-184.13-4.38-276.18-.08q-16.6,1-33.31,2.4t-33.56,3.2c-41.65,4.82-82.2-.8-123,2-14.83.28-27.86.36-40.28.36-1.1,0,2.19,3.21,1.1,4.82,12.6.2,25.63.54,40.31.73,38.6-2.33,75.87,8.1,114.23,2.48q18.7-2.86,37.16-4.82t36.73-3.18c73-2.48,144.22-20,218.74-9.06,28.5,4.38,56.17,9.59,83.75,13.44,9.24,1.39,18.47,2.63,28.31,5.13q81.79,23.11,167.41,6.64c89.87-17.54,175.36-30.69,262.59-11.63,11.87-.3,23.78-.73,35.71-1.22,95.45-3.91,191-8.2,286.27,2.33,7.23.44,16.08.42,23.58.33Z" transform="translate(-725.41 12.2)"/><path class="cls-5" d="M2098.59,1221.39c-8.92-.86-18.84-1.65-27.21-2.17-98.5-9.57-196.6-7.89-295-4.23-12.3.46-24.53.82-36.15-.21-40.21-5.54-80.76-11-122.41-4.44-101.93,15.34-201.66,37.26-301.81,13.67-11.65.58-22.61.58-34.66-2.71-83.3-18.63-162.21-15.34-243.76-9.12-11.63.3-24,1.14-35.54,1.82a645.51,645.51,0,0,0-69.23,7.63,159.06,159.06,0,0,1-29.59,2.48c-34,0-66.86-3.1-101.38-2-13.45-.14-25.65-.58-37.81-1.14-2.19,0-2.19,2.48-1.1,2.48q11.71,1.22,23.32,2.24c46.83,1.47,92.86,11.39,138.89,4.57a964.47,964.47,0,0,1,97.51-9.24c11.13-.75,22-1.2,33-1.69,77.68-5.75,152.21-7.95,232.22,8.49a192.81,192.81,0,0,0,39.9,2.73c100.39,22.48,201.22-3.83,303.15-15.88,35.07-4.38,69,1.1,103.11,5.84,11.66,1.43,24.23,1.19,36.88.8,101.23-3.07,202.28-4.68,303.75,3.63q13.14.73,26.3,1.93Z" transform="translate(-725.41 12.2)"/><path class="cls-5" d="M2107.37,1238.26q-17.8-1.58-35.58-2.43c-98.77-8.22-197-10-295.16-7.72q-18.41.43-36.68.83c-35.51-5.45-71.68-9.84-107.85-4.36-98.64,14.25-195.09,36.17-293,16.53-9.21-1.42-17.2-1.41-25.18-1.41-78.59-3.06-157.51-16.21-237.81-6.38-11.11.35-22.58,1.06-33.68,1.51-44.39,1.8-88.77,4.64-133.71,6.87-30.69,2-61.38-1.48-91.71-2.63L791,1238c-8.58-.34-17.17-.61-25.8-.79,4.38,2.35,11.17,3.77,19.4,4.65s17.93,1.2,28.14,1.35c10.55-.06,21.51-1.05,32.47.43,34,4,66.86,7.92,100.83,4,36.72-3.71,72.34-6.68,108-8.3,12.05-.7,24-1.15,36.05-1.54,59.8-2.25,121.18-2.25,181.56,7.12,13.48.3,26.93.41,40.42.45a253.76,253.76,0,0,1,28.1,1.25c92.5,14.14,181.27,4.28,275.53-14.36,32.88-6.58,64.66-6.58,97.61-1.78,9.74,1.33,19.64,2.8,30.76,2.52,101.28-3.83,202.47-2.4,303.93,5.8,11.85.6,22.38,1.1,32.72,1.71s20.64,1.37,30.91,2.25Z" transform="translate(-725.41 12.2)"/><path class="cls-5" d="M2118.74,1255.45q-11.79-1.51-23.57-2.7t-23.57-2c-104.4-8.92-209.41-8.68-314.75-6.21-11.62.19-23.24.4-33.88-.47-26.2-3-52.51-8.5-78.81-4.11-94.26,14.25-185.22,34-279.38,20.67a300.8,300.8,0,0,0-32.08-2q-14.67,0-29.33,0-20.86,0-41.72-.17c-12.06-1.5-24-3-36-4.47a590.15,590.15,0,0,0-134.23-3.54c-12.29.8-24.56,1.82-36.82,2.95-36.78,3.38-73.49,7.68-110.76,9.55-29.59,2.24-59.18,1.5-87.17-4.22-8.4-1-16.57-1.59-24.63-2.33s-16-1.5-24.11-2.43c-14.25-1.5-27.4,0-41.65-.75,17.54,5.39,39.81,8.86,63.8,11,8,.73,16.18,1.31,24.45,1.77,12.81,1.86,25.61,3.2,38.4,4.12,77.21,4.77,152.83-5.71,229.67-9,12.75-.81,25.5-1.49,38.24-2,31.78-.75,63.57,2.24,95.16,5.15l41.71-.1,29.33,0c9.86.05,19.72.11,30.61.93,95.82,12.11,189-3.23,284.33-15.29,24.11-3.29,47.13,1.1,69.73,4.05,10.44.94,22.16.7,33.87.45,106.36-3,212.64-6.84,319.62,2.58,9.63.7,19.25,1.54,28.87,2.45s19.26,1.91,28.92,2.93Z" transform="translate(-725.41 12.2)"/><path class="cls-5" d="M2127.53,1279.19c-19.38-1.65-38.63-3.46-57.91-4.88-9.64-.71-19.82-1.51-29.59-2-106.72-9.4-213.27-2.35-320.06-.7-11.79.13-23.57.19-33.7-1-47.59-7.68-94.72,5.48-141.84,9.86a938.55,938.55,0,0,1-140.78,2.82c-12.31-.77-24.35-1.66-34.79-1.69q-46.28.18-92.56.32c-13.71,0-27.28,0-39.63-.73-29.81-1.93-58.31-4.08-87.9-3.36q-15.82.54-31.65,1.31t-31.65,1.61c-41.92,2.11-84.66,4.27-126.71,4.76q-15.86.07-31.75-.34t-31.76-1.49c-12.38-.65-24.17-1.65-35-2.35-32.06-1.85-64.12-6-96.17-5,14.25,12.22,61.38,5.75,89.87,10.79,12.6,1.8,25.21,2.88,39,3.92,83.76,6.86,167.05-3.92,250.35-6.8,28.5-.72,55.9,1.44,83.88,2.35,11.81.61,24.88.65,38.1.61q53.53-.13,107.07-.1c12.06.06,25.07.59,39.18,1.39,75.91,6.16,150.44-4.8,226.07-11.38,11,0,21.92,0,33.24,2.09,10.05,1.1,22.23,1,34.41.82,110.55-1.91,221.93-6.72,332.6-1.54,7.78.36,15.52.9,23.25,1.53,23.19,1.89,46.28,4.58,70,5.66Z" transform="translate(-725.41 12.2)"/><path class="cls-5" d="M2094.47,660q-16.68-.52-33.21-1.39t-33-2a359.58,359.58,0,0,0-81.63-19.49c-92.06-12.06-180.84,9.86-272.27,6.92-10.71-.32-20.54-.16-30.23-.35-67.13,0-135.94-4.2-203.74.09-9.64.59-19.26,1.36-28.1,2-44.35,7.78-86,20.93-129.34,28.41-7.39,1.37-14.77,2.62-22.2,3.71a400.66,400.66,0,0,1-45.25,4.2q-18.87.84-37.75.79A845.68,845.68,0,0,1,989,660.63c-10.54-.66-20-.88-29.67-1.21q-41-.58-82.34-1.93c-11.51.25-27.4-.63-41.92-.56S807.37,658,801.34,662l77.11-.44c8.55,0,17,.4,25.48.93q16.67.75,33.2,1.35c11.41.51,23.69,1.25,34.57,1.53,11.57.27,22.53.27,34.58,3.56,57.54,13.7,113.44,20.28,169,20.2q16.66,0,33.29-.84c15.83-.73,32.27-.73,47.61-5.11q12.73-3.24,25.43-6.25c8.52-2,17-4,26.15-5.86,28.43-5.42,55.83-12,83.88-15.38,8.44-1.19,17.1-2.63,25.81-4.07,76.59-12.65,153.29-4.17,230-2.58,11,.28,22,.41,33.79,1,19.91.3,39.64,2.49,59.37-1.89,100.83-17.54,196.18-12.06,292.91,13.7q16.27,1,32.6,1.71t32.74.83Z" transform="translate(-725.41 12.2)"/><path class="cls-5" d="M2133.38,1287.73c-28.7-1.9-57-4.69-85.56-6.17-10.13-.76-20-1.26-30.14-1.68-101.39-3.4-203.86.7-306,2.58q-17,.31-34,.53c-11.58-1.41-23.63-2.51-35.69-1.41-76.72,4.38-153.44,14.25-229.78,8.85-13.9-.81-26.27-1.12-38.17-1.19q-52.89-.13-105.79-.17-19.59,0-39-.05c-80.47-6.43-160.47,1.57-240.48,4.24a1116.68,1116.68,0,0,1-113.54-3.81c-10.85-.6-21.7-1.25-32.55-1.88s-21.7-1.21-32.55-1.66c-14.25,0-43.84-7.34-48.22,3.34,40.55,1.33,80,6.67,120.56,8,14.25.33,28.43.25,44.65.52,90.16.81,178.94-8.52,268.72-4,11.84.61,25.57.67,39.52.66q74.63,0,149.24.09c10.05,0,20.1.09,31.65.66,66.82,3.9,133.68-.48,200.53-8.15,14.25-1.1,28.5,0,42.36.24,8.05.73,18.42.6,27.82,1.26,115,2.88,231.22-7,346.57-.81,7.62.24,15.18.6,22.73,1.07,15.09.93,30.12,2.29,45.17,3.88,11,1,22.78,1.13,34.62,1.11Z" transform="translate(-725.41 12.2)"/><path class="cls-5" d="M2087.93,15.83l-28.88-.58c-9.68-.19-20.35,0-30-.09-118.54,9.32-236.91,21.37-356.23,5.45-11.92-.21-23.6-.38-34.78-.5-22.37-.24-44.76-1-67.21-2.49-13.4-.7-26.74-.66-40.07-.58s-26.67.32-40,.53q-60.11,1-120.22.88-20,0-40.07-.12-18.85-2.3-37.68-3.73c-12.93-.83-26.08-1.29-38.57-1.77-15.54-1.49-29.79-.4-45.13,1.79-109.6,16.44-213.72,24.11-319.9-.69-12.49-1-26.23-1.32-39.59-1.36a557.65,557.65,0,0,0-57,2.49,2.32,2.32,0,0,0,1.1,2c14.25,1,28.22.62,42.2.12s27.95-1.12,42.2-.62c51.51,6.82,103,21.07,155.63,21.07,75.62-1.1,150.15-21.92,225.93-18.32,10.93.69,22.5,1.32,33.81,2.16q16.45,1.44,32.89,3.26,14.8,0,29.59-.34t29.59-.85c49.32-2.49,98.64-4.64,148-4.13,9.86.1,19.73.31,29.63.82q40.25,4.73,81.34,5.83c9.88.49,19.55.76,29.72,1.11,55.49,2.78,111.38,10.45,168.38,7.17,68-3.29,133.71-16.44,202.17-14.77,11.2.14,22.36.31,33.17.63Z" transform="translate(-725.41 12.2)"/><path class="cls-5" d="M2066.76,26.45c-7.45-.56-15.77-.54-23.64-.52-134.83,9.51-267.44,22.66-401.8,7.17-10.47-.17-20.85-.46-31.23-.92-20.77-.92-41.55-2.53-62.38-5q-14.84-.51-29.62-.5c-49.28,0-98.1,3.58-146.83,5.26-11.7.4-23.39.69-35.08.8-13.15.62-25.21-.62-37.26-2.47-11.1-1.62-22.79-2.7-33.9-3.61-13.23-1.07-27.48-2.17-40.63,0C1106,43.11,992,49.69,877.16,23.31q-19.2.18-38.42.67t-38.48,1.35s0,2.47,2.19,2.47l35.92.54,35.89.57c95.88,15.31,189,30.65,287.68,8.73,40.55-8.77,81.1-7.67,120.61-1.78Q1293.93,37.68,1305,40a184.58,184.58,0,0,0,25.68,1.17c8.77-.08,17.54-.39,26.3-1,61.65-4.63,122-6.85,182.43-7.1,12.15,0,24.29.13,37.08,1.06q16.06,1.92,32.14,3.07t32.16,1.67c123.9,13,245.55,7.56,370.5-5.59,16.44-2.19,31.78-1.1,48-1.38Z" transform="translate(-725.41 12.2)"/><path class="cls-5" d="M2051.05,54c-140.57,6.67-278.66,17.63-419.17,5q-15.67-.3-31.34-1t-31.36-1.8c-11.35,0-22.62,0-33.89,0q-33.8.1-67.59.3c-41.65,0-82.2,3.58-123.85,4.61-11.51,0-23,0-34.52-.06-9.66-1.27-20.51-2.21-30.37-3.1a276.73,276.73,0,0,0-64.44-.63c-110.7,8.77-219.2,12.06-328.44-5.61-14.75-.2-28.15,0-41.2.32s-26.1.82-39.16,1.41V55q16.77.54,33.54,1c11.18.29,22.37.56,34.32.91C988.76,73.8,1103.84,67.22,1220,61.74a310.77,310.77,0,0,1,62.84,3.18c7.69.75,16.08,1.35,23.75,1.86,10.14.13,20.14.06,30.07-.14,29.8-.6,59-2.42,89.39-4,42.68-2.24,84.72-2.42,126.6-2,10.47.1,21,.28,32,.74q17.32,1.1,34.48,1.79c11.45.46,23.16.83,36.92,1.35,131.65,12.52,262.07-1.73,393.87-6Z" transform="translate(-725.41 12.2)"/><path class="cls-5" d="M2052.13,59.22c-77,3.62-151.51,5.81-228.23,13.49-65.76,5.48-130.42-2.19-195.44-4.69q-18.7-.79-37.51-2.21-18.78,0-37.33.24c-74.31.72-148.62,1.71-222.92,2.16q-18.08.16-36,0c-72.5-8.67-144.84-1-217.17,3.38-57,4.38-112.89-4.38-171-13.15-16.44-2.19-31.78-2.19-46.91-2.24q-18.19-.44-36.39-.76c-7.67-.75-14.25,3.75-17.54,9q18.08-.4,36.15-.56c12-.11,24.43-.1,38.52.19,99.6,9.72,199.33,15.2,301.26,7.53,31.78-3.29,62.47,0,93.44,3.32,11.77,1,23.84,1.29,35.89,1.51,93.9,1.08,187.81-2.12,281.71-4.27,10.58-.17,22,.12,33.81.49,91.09,9.91,182.06,6.63,274.12-2.14,52.61-4.38,104.12-5.48,156.75-4.55Z" transform="translate(-725.41 12.2)"/><path class="cls-5" d="M2071.25,79.47a2864.13,2864.13,0,0,0-293.38,10.77,558.58,558.58,0,0,1-143.05-5.65c-12.35-.43-27.56-.48-40.53-.43q-58.36.21-116.72.61c-53.89.52-107.77,4.1-162.29,3.46-10.9-.13-22.66-.42-33.34-.95-20.27-.33-41.1-3.62-60.82-3.62-119.46-2.19-238.93,2.19-358.8-5.64-12.67-.21-27.35-.53-40.14-.8-9.86,0-15.34,4.4-23,7.54l27.3.2,27.3.19c119.66,4,240.22-.4,359.68,4,19.73,0,38.36,2.19,57.95,2.49,13.81.42,26.28.85,38.5,1.3,88,3.46,174.71-.48,262.17-1.69,12.73-.11,25.27-.22,38-.19,6.69,0,14.37,0,20.94,1.25,75.62,8.9,149.05,10,226.87-4.26,68-12.06,133.71-2.19,200.69-3,8.63.09,16.32.2,24,.29Z" transform="translate(-725.41 12.2)"/><path class="cls-5" d="M2091.8,98.45c-7.57-.17-15.52-.35-23-.5-96.93-3.33-189-11-288.73,9.82-52.61,9.86-103,3.29-153.37-3.38-7.5-.86-15-1.52-22.65-1.85a229.78,229.78,0,0,0-23.08.09q-16.34,0-32.59.18c-76,.73-151.9,3.19-227.86,3.17-11,0-22.75-.14-32.59-.18C1140,97.91,991,90.24,843.28,99.74q-12.83.78-25.51,1.81t-25.19,2.32q23-.32,46-.57c7.67-.07,16.18-.18,24-.22,141.52-5.17,282.9,1.41,424.47,8.29,12.19.14,25,.32,37.06.41q108.13.75,216.13.16l32-.19c8.33-.23,16.58-.16,24.79.14s16.35.83,24.48,1.5c42.37,4.25,84,8.64,127.86,2.06,103-15.34,201.66-21.92,302-11.69,10-.23,19.1-.2,27.91,0s17.68.49,26.65.81Z" transform="translate(-725.41 12.2)"/><path class="cls-5" d="M2139.11,123.45c-20.39-1-40.11.33-61.2-.63-10.27-.07-20.73-.15-32.29-.38-55.13-7-108.83-17.95-164.73-10.28-80,11-156.73,34-236.82,22.82-9.48-1-18.91-1.93-28.36-2.71a505.26,505.26,0,0,0-57.57-1.85l-34.85-.18q-104.16-.61-208.37-2.33c-11.58-.17-24.08-.52-35.81-.75-146.77-16.1-293.63-12.81-440.38-5.75-11.2.5-22.19,1.32-32.85,2.59A286.15,286.15,0,0,0,775,129.28q20.61-.16,41.21-.23t41.2-.05c136.79-10.27,272.69-11.36,408.7,4.46,13.8.3,29.31.94,44.17,1.42,68.6,1.15,137.21,2.16,205.84,2.67q19.51.14,39,.23c14.9.22,29.2.5,43.48,1.25s28.52,1.95,43.32,4c74.53,8.58,144.67-10.05,220.29-23.21,68-13.15,130.42,4.38,194.76,9.45,6.67-.18,15.17,0,22.9,0q34.29,0,68.83.15Z" transform="translate(-725.41 12.2)"/><path class="cls-5" d="M2159.52,137.05c-27,.36-53.61,1.32-80.16,1.93-8.85.2-18.88.08-26.55.46-113.82-32.76-226.71-1-342.88,12.18-13.15,2.19-25.21,3.29-38.74,1.83-12.3-.36-24.11-1.2-36.49-2.13q-17.56-1.73-35.47-4.18c-15.34-2.34-29.59-.78-43.34-1.11-13.06-.11-26.78-.27-40.13-.44-61.91-.72-123.82-1.88-185.73-3.14l-37.15-.76c-63-1-123.29-9.79-185.76-15.27-87.68-6.58-173.17,12.06-260,10.76l-19.4.25c-20.86,2.69-50.46-5.12-64.7,6.59,32.88,0,66.86,0,99.47,0,6.58,0,13.17,0,20.3-.12,66.55,0,132.31-14.24,199.17-12,60.28,3.29,120.56,14.25,181.33,17.72,8.84.33,18.22.74,27,.89,35,.6,70.18.29,105.47.82l39.5.55q39.5.52,79,.9c13.17.12,27.38.25,40.73.35,28.12-.78,56,.93,83.85,3.13,9.55.63,19.52,1.17,28.73,1.93,68.72,6.61,135.58-15.31,204.63-24.08,58.09-7.67,115.08,1.1,171.13,11.5,8.77.51,20.78.89,31.08.73,30.95-.72,61.9-1.87,92.57-3Z" transform="translate(-725.41 12.2)"/><path class="cls-5" d="M2170.88,149.94c-35.94.41-71.72,1.87-107.61,2.91a285.82,285.82,0,0,1-37-1.58c-53.29-9.52-107-13.9-160.7-11.71-63.57,4.38-123.85,21.92-187.87,21-11.55-.06-22.66-.48-34.24-.87q-16.5-.92-33.26-2.18c-17.54-1.69-36.17-.56-54-.83l-38.75-.29q-37.44-.3-74.87-.69l-37.44-.38c-31.18.35-62.39.79-93.59.67q-15.6-.06-31.21-.34c-88.81-2.92-176.49-24.84-266.36-15-47.13,5.48-93.16,9.86-139.36,11.62-8.27,0-16.74-.12-25.27-.27-34.11-.63-69.18-1.63-94,4.37,36.17,0,72.61.14,109.11.34,13.09-.27,25.64-.34,38.62-.66,118.59-14.3,237-13.21,355.35,5.48,9.85.53,19.63.86,29.39,1,39,.74,78-.69,117.36-2.07,6.66-.1,13.22-.08,19.76,0,13.22-.19,26.37.93,39.26.36l19.64.19,29.46.3,29.47.31c28,.89,55.4-1.35,83.89.89,13,1,26,1.76,39,2.3C1735.13,167,1802,148.33,1869.94,145c53.7-1.1,106.31,7.67,159.12,12.76,8.56.55,16.51.83,24.45,1.06q15.46-.49,30.92-1.07c30.92-1.15,61.85-2.46,92.85-3.42Z" transform="translate(-725.41 12.2)"/><path class="cls-5" d="M2186.07,165.71c-31.83.86-63.44,2.84-94.94,4.7-10.8.66-22.68,1.44-33.08,2-7.79.5-15.59.76-23.4.87s-15.68,0-24-.4c-107.79-20.15-214.1-9.19-321,1.4-11.75-.15-24.72.23-37,.24-35.59-.56-71.22-1.21-107-1.63-11-.26-22-.54-32.95-.81l-32.87-.83q-16.43-.41-32.87-.8c-54.8,2.63-109.17,4.9-163.61,3.88q-16.33-.3-32.68-1c-112.77-21.67-226.76-19.48-339.84-6.21-13.7.37-27,.5-40.87.84q-59,.08-117.85.09a8.76,8.76,0,0,1-1.1,5.13q58.26-.1,116.53-.1c13.36-.19,27.07-.55,39.93-.55,89-4.43,174.53-20.87,266.59-2.24a561.23,561.23,0,0,0,72.79,10.9q16.88,1,33.76,1.49c56.27,1.59,112.56-1.16,169-6.21,12.9.14,26.36-.06,39.51,0l38.87.47c14,.14,29.47.18,43,.36,30.55-.44,61.68-.08,92.68.55,7.75.16,15.71.22,23.46.37,11.89-.22,22.85.88,34.91-.22,93.16-13.15,184.13-17.54,275.26-.06,13.88.6,27,.65,40.09.28s26.07-1.1,39-2.46l22.47-1.34c29.87-1.78,59.71-3.5,89.49-4.07Z" transform="translate(-725.41 12.2)"/><path class="cls-5" d="M2189.48,186.32c-26.61,1-52.79,3-79,5.24q-13.12,1.13-26.28,2.3c-25.86,2.46-52.06,4.94-78.33,5.8-8.76.29-17.53.39-26.29.25-86.58-17.61-174.26-15.42-262.16-7.52-12.53.05-25.67.45-38.14.31-40.55-.55-80,.55-121,.17l-40.15-.36q-19.07-.17-38.24-.26c-88.33,8.55-173.21,20.53-262.81,8-13.25-2.18-26.44-4.76-39.81-8.07-82.2-17.53-167.68-5.47-250.9-2.69q-17.27,0-34.46,0-68.82-.09-137.69-.09c40.55,3.88,82.2,5.54,122.75,5.54q14.18.14,28.36.25l28.36.19c85.76-2.09,171.25-13.05,255.83,4.1,7.82,1.12,15.54,2.31,23.36,3.64,23,3.59,46,7.7,69.61,9.9,68,5.48,132.61-17.54,199.47-17.65q18.91.12,37.81.29t37.81.4c7.67.06,15.46.14,23.88.17,39.53.61,79,.65,118.49.6,13.54-.34,26.94-.59,40.5-1.14a1055.85,1055.85,0,0,1,234.67,6c9.49.29,18.91.53,28.32.62,18.83.19,37.64-.16,56.35-1.81,11.8-.71,23-1.59,34.31-2.54,31.95-2.79,63-6.13,95.73-7Z" transform="translate(-725.41 12.2)"/><path class="cls-5" d="M2190,200.35c-29.47,1.23-58.94,3.39-88.45,5.51-10.67.72-20.78,1.43-31.35,2.1-26.92,1.52-53.38,3.07-80.18,3.31-8.93.08-17.91,0-27-.24-75.62-9-151.25-12.27-226.7-6.9-12.59.07-25.45.39-38.19.6-37.9.36-75.84.84-113.83.94-13.57-.14-28.64-.09-42.63-.17-13-.12-26-.23-39.08-.28-14.13.11-28.38-1-42.63,2.31-92.06,16.3-175.74,18.34-265.7,5.38-13-2.06-26.06-4.28-39.3-6.94-67.63-11.59-136.68-.63-206-2.08H917.86q-78,0-156-.1c47.68,5.17,101.38,6.08,156.32,5.95q16.48,0,33.07-.18c72.55.15,144.89-7.52,216.13,4.54q19.52,4.11,38.62,6.78c89.19,12.59,172.5,3.36,261.69-10.07,14.25-2.19,28.5-1.1,42.42-1.52l23.79.34,23.8.37c8.92.14,18.5.19,27.39.34q61.25.68,122.63-1.41,15.34-.5,30.7-1.16c73.42-10.11,145.75,1.94,217.57,8q14.77.6,29.6,1c29.63.7,59.3.41,88.51-2.24,7.82-.75,16.43-1.51,24.05-2.27,30.48-3.06,60.55-6,92.31-7.4Z" transform="translate(-725.41 12.2)"/><path class="cls-5" d="M2191.78,221.23a359.75,359.75,0,0,0-48.94,3.23q-13.53,1.54-27,2.87t-26.86,2.4c-33.9,2-67.84,2.09-101.66,1.29q-16.91-.4-33.77-1c-54-2.74-108.82-8.22-162.46-8.22-10.86,0-21.78-.09-32.65.06q-32.59.45-64.95,2.12c-14.16,1.2-28.24,1.49-42.23,1.61s-28-.05-42.35-.12c-8.87,0-17.27-.08-25.58-.16q-24.94-.24-49.87-.25c-13.94,0-28,0-43.63.5-67.06,3.92-131.73,23.64-198.58,18.16-54.8-3.65-108.08-14.92-162.57-18.69-10.9-.75-21.85-1.21-32.86-1.24-12-.17-24.08-.32-35.67-.34l-34.79,0q-121.77-.09-243.74,1.08c32.88,2.2,64.66,3.29,97.54,4.39,63.41,1.69,126.66,1.75,189.87,1.41,10.54-.06,21.09-.12,31.74-.16,73.21-.67,144.45,19.05,217.88,20.15,58.09,1.1,114-17.54,172.49-21.91,12.31-.83,22.87-1,33.18-.95s20.66.36,31.07.9q11.64.55,23.27,1t23.23.88c10.18.7,20.75.91,31.38.95s21.31-.1,31.73-.1c19.18.42,38.36.18,57.54-.31,9.59-.25,19.18-.56,28.77-.88,68.22-.42,136.18-1.51,203.7,6.89,9.53.47,19,.88,28.57,1.12,28.42.91,57,.41,85.24-1.15,10.17-.71,21.49-1.45,32.25-2.27,30.68-2.59,61.23-5.65,91.6-8.1Z" transform="translate(-725.41 12.2)"/><path class="cls-5" d="M2193.55,228.32c-32.46,3.77-65,7.83-97.61,11-11.45,1-23.55,1.78-34.33,2.61a545.07,545.07,0,0,1-58.78.36c-9.75-.42-19.69-.87-29.42-1.58-71.7-4.74-142.94-14.6-214.68-10.93-10.43.42-21,.78-31.42,1.27-20.88,1-41.76,2-62.67,2.42-13.69-.17-27.69-1.11-41.45-1.81-8.36-.33-16.84-.58-25.24-.82q-18.83-.57-37.69-.81t-37.77,0c-12.06-.68-24.11.42-36.17,1.51-64.66,5.48-127.14,26.3-191.8,20.82-69-5.48-137-24.11-206-22.12l-36.17-.16c-84.39-.36-168.78-.57-253.17-.05,87.93,7.68,179.34,9.63,271.24,9.81,11.49,0,25.4.46,37,.49,66.59,0,131.25,15.32,198.11,20.8,14.25,1.1,27.4,0,41.65-1.1,55.9-4.38,107.41-24.11,163.13-24.75,7.77.35,17.89.25,26.75.45,26.58.6,53.16,1.51,79.76,2.53,8.87.34,17.74.7,26.71,1.09q16.06,1.33,32.15,2t32.21.72c100.7-2.85,200.44-.65,300.53,8.7q12.26.41,24.57.2t24.72-1.18c11.25-.82,23.36-1.68,35.1-2.72,33.89-3.35,67.67-7.73,101.25-11.55Z" transform="translate(-725.41 12.2)"/><path class="cls-5" d="M2193.88,253.19c-35.17,2.75-70.41,5.49-105.76,7.45q-17.68,1-35.39,1.66c-12.27.34-25,.67-37,.49-54.81.62-107.41,3.91-162.21,9.39-58.09,5.48-112.89-12.06-169.53-13.69q-16.93-.94-33.87-2.13t-33.89-2.58q-18.91-.31-37.81-.45-12.6-.09-25.21-.09c-11.69-.26-25.35,0-37.07.27-66,3.32-130.62,14.28-195.28,15.37-72.34,0-144.67-13.15-217.39-13.26-11.42-.2-23-.42-33.43-.54-83.33-.94-166.41-3.26-250.05-2.89,75.44,5.46,158,6.86,240.84,7,12.13,0,26.24.23,37.94.21,142.08,11.71,284.56,15,427-.14,12.86,0,26.2-.1,38.4,0s24.39.27,36.57.43,24.56.43,37.73,1.24c8.81.6,17.62,1.34,26.42,2.15,9.18,1,18.1,1.93,27.35,3,50.61,7.16,98.84,22.51,151.45,14.84,54.8-8.77,106.31-13.15,159.79-13,12.4-.25,24.06-.36,35.66-1q15.48-.41,30.86-1.15c41.08-1.9,82.15-5.05,123.19-7.45Z" transform="translate(-725.41 12.2)"/><path class="cls-5" d="M2192.55,268.62c-41.29,3-82.77,7-124.3,9.2-10.38.56-21.5,1.29-31.21,1.31A1465.29,1465.29,0,0,0,1850.21,293c-62.47,8.77-122.75-12.06-183.93-17.16q-15.81-1.28-31.65-3t-31.73-3.8q-18.05-.61-36.14-1.29c-10.94-.36-22.36-.65-32.3-1.25-62.37.17-123.74,12.22-186.21,12.22-85.49,1.1-169.88-9.86-255.38-9.65-10.95-.19-23.46-.5-34.71-.77-77.2-1.83-154.4-4.85-231.6-2.57,77.57,5.56,155.52,8.46,233.64,9.8,11.48.2,24.6.38,35.66.51,140.6.48,280.89,12.54,420.89-1.2,9.86-.4,22-.72,31.79-.83,11.39.1,22.67.32,33.92.6s22.61.68,35,1.57c9,.6,18,1.5,26.87,2.57,9.38,1.25,19.29,2.89,28.19,4.22,63.73,12.18,125.11,33,193.06,19.85,58.09-12.06,112.89-13.15,170.1-17.59,9.54,0,21-.76,31.39-1.26,41.5-2,82.82-5.36,123.81-8.08Z" transform="translate(-725.41 12.2)"/><path class="cls-5" d="M2188,278.89c-30.49,1.68-61.1,3.2-91.8,4.25q-15.35.53-30.72.89c-10.67.54-22.41,1.25-33.35,1.58-58.05-.29-112.85,14-169.84,21.63-69,7.67-133.71-18.63-201.87-23.34q-16.64-1.39-33.35-2.83t-33.5-2.84c-9.07-.13-18.07-.22-27.06-.28-11.75,0-22.91,0-33.95.07-145.94,7.3-292.8.73-438.54-1.24-12.18-.14-26.48-.33-38.77-.52s-24.58-.4-36.87-.64c-62.47-1.66-126-1.66-187.41,4.43,72.28,0,144.45.6,216.58,1.3l30.91.31c148.17,1.47,296.13,2.57,443.58,2.1,12.46-.36,26.63-.73,39-1.17,11.69.07,24.15.44,35.78.6q18.62,2.46,37.2,4.49c13.54,1.72,26.35,3.08,40.13,4.68,63.23,7.21,124.61,25.84,189.27,20.36,59.18-4.38,116.18-21.92,175.52-22.1,11.87-.33,25.64-1.38,37.6-2.09,12-.28,24.53-.87,36.52-1.26q36-1.17,71.73-3Z" transform="translate(-725.41 12.2)"/><path class="cls-5" d="M2174.55,310.43q-12.86.05-25.81.32c-8.77.22-17.69.53-26.34.76q-18.48,1.91-37,3.21c-12.34.87-24.72,1.56-39.06,2.45-132.59,19.67-264.1,15.29-396.9-2.54-12-.69-26.28-1.8-39.27-2.7q-18.26-1.14-36.52-2.36-18.32.05-36.66,0c-13.88-.24-27.39-.46-42.4-1-131-15.63-262.55-11.25-393.71,0-7.27-.53-17.9-.77-26.65-1.28s-17.51-1.05-26.23-1.48q-20.74-.53-41.73-1.12c-61.38-2-122.75-1.31-183,5.88,41.65-.65,84.39-1.31,126,0q20.62.62,41.24,1.16t41.23,1q13.77,1.32,27.71,2.28t27.91,1.45c78.91.58,155.63-20.24,234.54-17,46.76,1.46,93.52,7.79,140.18,12.1,11.66,1.08,23.32,2,35,2.75s23.29,1.2,34.92,1.35c13.07.29,26.19.58,38.7.74l36.72,1.8c13.08.72,27.49,1.63,39.57,2.2,65.11,3.18,129.78,13,194.44,15.24,75.62,3.29,149.05-11,225.08-13.55,7.89-.43,15.72-.88,23.53-1.37q23.46-1.47,47.06-3.33c10.32-.19,21-.53,31.17-.83Z" transform="translate(-725.41 12.2)"/><path class="cls-5" d="M2161.75,333.17c-12.34-.73-24.39.78-36.45.78-8.22.47-16.41,1.06-24.57,1.72s-16.29,1.4-24.41,2.16c-146.11,19.83-293,1.2-439-2.23-11.64-.12-24.68-.33-37-.47l-35.23-.28c-9,0-18.07-.1-27.09-.32-27.07-.66-54-2.54-80.5-7.4q-14.59-2.11-29.24-4.56c-29-4.36-58.06-9.3-87.66-13.13-19.73-3.29-39.46-4.38-59.18-2.19-58.09,5.48-114,23-171.8,25.23-6.69-.25-16.19.16-24.4.15-24.25-.11-48.31-1-72.39-2.94q-19.93.11-40.13.42-80.77,1.29-161.46,4.59,79.42,1,158.84,1.84c13.24.13,26.34.35,38.26,1.29,27.26,2.75,55,4.72,82.94,4.57,9.3,0,21-1.08,28.18-1,57.84-4.58,112.64-23.21,170.72-29.79,37.26-3.84,73.43,2.19,109.49,9.53,12.21,2.69,24.5,5.67,36.47,8.08,33.88,8.73,68.62,12,103.64,12.84,12.58.3,26.22.34,37.78.19q19-.65,38-1c14.48-.13,28.24-.2,43.19-.08,133.34,0,266,19.74,399.3,5.29,12.15-1.08,23.84-2.13,34.75-3,21.83-1.83,43.64-3.23,65.71-3.6Z" transform="translate(-725.41 12.2)"/><path class="cls-5" d="M2155.48,335.23c-19.05.52-38.07,1.6-57.09,2.85-9.51.63-19.63,1.33-29.27,2-137.81,13.19-277,3.32-415.58-2.39-13.94-.31-26.64-.45-40.15-.58q-18.12,0-36.22.13c-11.06.16-24,.19-36,.06-33.56-.27-67.05-2.26-100.07-9.52-9.71-1.77-19.51-3.86-29.31-6-29.05-5.82-58.1-11.85-87.69-13.49-70.14-3.29-138.09,23-207.86,27.21-8.14-.07-20.1.76-29.94.85-29.52.27-58.81-.81-87.21-2.67-12.32-.43-25.55-.35-38.9-.2q-80.05.95-160,3.23,75.93,1,151.86,1.66c12.66.12,25.23.28,37.1.93,38,2.43,75.53,5.5,114.26,4.55,7.75-.19,15.67-.59,24.34-1.43,58.23-3.44,111.94-25.36,170-31.94a142.88,142.88,0,0,1,37.26,1.1c26.3,4.93,51.79,10.69,77.32,15.68,8.53,1.7,17.11,3.38,25.81,5.07,34.47,8.81,69.79,11,105.2,11.14,12.95.05,25.12-.13,37.9-.37q18.47-.45,36.92-.69c14.16-.08,27.82-.11,42.49,0,139.05,2.07,278.24,10.84,417.09,1.79,8-.38,15.92-.78,23.85-1.2q23.81-1.27,47.71-2.72Z" transform="translate(-725.41 12.2)"/><path class="cls-5" d="M2140.38,346.12q-13.67.9-27.32,1.64t-27.29,1.32c-145.69,7.49-291.46-4.56-436.88.2-13.29.36-25.45.73-38.38,1q-17.54.49-35,.79c-10.54.11-22.23.11-32.58-.13-41.4-1-82.63-5.32-122.9-18.44-8.83-2-17.89-4.36-26.89-6.56-26.56-6.12-53.14-11.6-80-12.15-60.28-1.1-117.27,27.4-178.38,31.75-9.47.61-18.6,1-27.77,1.4-43.85,1.12-87.55.66-131.6-3.11q-19,.1-38.25.38-76.71,1.08-153.36,3.55,76.41.6,152.75,1.07,19.09.12,38,.36c21.82,3,43.74,3,65.81,4.74,11,.56,22.08.95,33.19,1.06s22.28-.07,33.51-.62c12.06-.55,24.37-1.31,38-2.7,57.4-7.19,111.1-33.49,168.09-33.49,19.73,0,39.09,3,58.38,7.23,9.64,2.09,19.27,4.47,28.94,6.94,44.57,17,90.69,22.25,137.33,23.18,11.66.23,24.66.14,36.56-.06q18-1.1,36.06-1.91c13.34-.55,25.85-1,39.54-1.37,108.17-3.32,215.58,0,324.08,3.26,36.17,1.1,73.43-1.1,109.94-2.57q11.49-.51,23-1t23.12-.75Z" transform="translate(-725.41 12.2)"/><path class="cls-5" d="M2106.23,376.2q-18.62.9-37.25,1.25a558.69,558.69,0,0,1-94.92-4.44c-111.79-16.44-218.1-4.38-327.65,4.72-11.49,1-25.51,2.35-38,3.64q-17.49,1.77-35,3.85c-11.41.26-22.81.36-34.17.22-56.8-.74-112.77-7.7-166.07-31.47-9-2.83-18.46-5.65-27.56-7.56-18.18-3.82-36.82-5.16-56.54-.78-40.55,9.86-77.82,26.3-118.62,31-12.7,1.49-24.82,2.62-37,3.8-92.06,12.35-185.22-3-277.42-3.85-8.56.08-17.28.06-25.83.2q-25.65.42-51.31,1.06l-18.08.23q9.71.32,19.42.59l25.33.28,25.33.28c98.71.41,197.35,23.42,295.92,7.28,10.44-.47,21.42-1.36,31.92-2,47.06-.5,88.71-19.13,134.74-30.09a88.54,88.54,0,0,1,34,0c7.67,1.46,15.19,3.14,22.66,5,57.17,22.73,116.72,30.54,176.89,31.81,12,.26,24.09.25,36.16.05,9.83-.32,19.4-.49,29-1a254.24,254.24,0,0,0,29-3c144.67-31.78,291.53-17.54,436.82-6.47,11.15,0,24.43.24,35.8.13Z" transform="translate(-725.41 12.2)"/><path class="cls-5" d="M2076.31,398.1c-11.21-.25-22.54-.6-35-1.26-130.81-22.75-261.23-21.65-390.77,11.53-11.81,1.68-23.48,3.38-35.12,5.13-13.9.7-26.59.59-39.2,0-42.74-2.19-83.3,1.1-127.14-7.67s-84.39-17.54-127-20.38q-14.47-.15-28.91.74a331.41,331.41,0,0,0-85.66,16.49c-12.63,1.32-25.24,2.58-37.83,3.7-57.06,4.94-113,20.28-171,10.42-68-11-134.81-17.54-202.57-16.35q-13.91.69-27.67,1.68t-27.32,2.3c11,2.42,22.19,3.23,33.43,3.43s23.45.22,33.52-.16c121.56,6.91,243.21,31,365.29,7.2,12.91-1,24.73-1.89,36.7-2.95,34.12-3.92,68.09-9.4,101.79-11.28,9.62-.34,18.87-.13,28.07.46,27.55,1.75,54.68,6.89,81.8,10.18q24.55,2.3,49,4,12.24.87,24.46,1.59c37.21,2,73.37,3.14,110.49,3,13.06-1.3,26.1-2.64,39.25-4,126.38-24.36,253.52-44.08,381-15.32,15.63,1.34,29.66,2.3,42.39,3.24Z" transform="translate(-725.41 12.2)"/><path class="cls-5" d="M2060.54,409.83c-61.27-2.85-120.46-17.1-181.83-21.48-73.43-5.48-142.48,23-214.79,31.77-9.6,1.17-21.94,2.48-32.89,2.92s-21.89.54-32.83.78c-32.94-.4-65.82.7-98.67-2.1q-16.47-.72-33-1.51-13.71-.6-27.42-1.26t-27.41-1.35C1334,407,1256.18,415.75,1178.09,419c-12.12,1.62-24.95,3.15-37.78,4.39-115.83,11.24-231.32-1.93-347.5-9.29-7.52-.3-15.15-.88-22.6-1.23-14.9-.71-29.15-.57-40.11,4.49,6.58,0,12.89,0,19.24,0q7.49.2,15,.31t14.92.15c112.51,8.25,224.87,19.52,337.18,12.64q16.85-1,33.51-2.55c87.64-5.67,174.22-15.53,261.71-6.07l23.8,1c11.85.47,23.78,1.07,35.63,1.55,54.74,4.46,109.54,3.37,164.31,2.84q13-.5,25.84-1.43c57.5-3.53,112.3-25.45,169.29-32,76.72-7.67,151.25,16.44,226.94,20.51Z" transform="translate(-725.41 12.2)"/><path class="cls-5" d="M2056.59,414.94c-9-.83-18.36-1.61-28.78-2.61-119.51-27.26-239-16.3-356.22,15.47-12.55,1.51-29.62,3.3-43.74,2.28-61.5,3.21-122.88-2.27-184.33-5.37-12.25-.54-24.5-1.08-37.85-2-87-8.07-172.5,1.8-258.83,6.27q-18.87,1.67-37.92,2.76c-101.58,5.92-202.63-1.1-304.56-11.61-12-.36-23.69-.58-35.81-1q-17.06-.27-34.06-.72c-5.48,0-7.67,3-8.77,5.46q14.61.19,29.22.33t29.22.27c51.16.06,100.48,7.74,152,13.22,54.8,6.16,108.74,2.91,162.57-1.23,10.76-.83,21.52-1.69,32.29-2.52,98.87-.63,197.51-14.88,296.56-4.94,11.77.49,23.47.93,35.2,1.46,59.74,5,121.11,5,181.45,2.66,8.47.38,17.5.41,26.26.3,72.33-5.59,140.28-41.76,213.71-36.28,49.32,4.38,96.45,17.54,144.63,20.69,9.88,1,18.81,1.79,27.67,2.73Z" transform="translate(-725.41 12.2)"/><path class="cls-5" d="M2060.6,441.95c-25.17-2.09-50.37-2.09-76.68-5.37-43.84-4.38-84.39-20.82-129.33-11-10.69,2.47-21.1,5.21-31.37,8s-20.61,5.74-31.06,8.59c-20.87,5.31-40.6,10.79-61.23,13.38a187.78,187.78,0,0,1-29.45,2c-40.89-.19-80.34-.19-120.6-2.43-9.46-.55-19.11-1.15-29-1.72-22.37-1.29-44.75-2.66-67.2-3.78q-11.23-.56-22.48-1c-19.73-2.19-40.55-3.29-60.28-4.38-100.83,0-201.66,17.54-303.27,12.11q-19.72.7-39.41.88c-91.9.92-183.51-5.73-275.83-11.81-9.94-.1-19.53-.1-29.56-.19l-28.15.13c-1.1,0,1.1,3.09,1.1,4.64q14.38.12,28.77.28c10.51.27,20.51.46,31,.77,90.91,6.73,182.09,14.66,272.94,13.59q19.47-.23,38.92-1c39.4,3.64,80-1.84,119.41-4,20.82-1.1,42.74,2.19,63.57,0,61.38-6.58,122.75-11,183.76-2.41,11.63,1.12,22.47,1.7,33.23,2.28s21.45,1.24,32.08,1.92c56.71,3.68,112.61,9.16,169.69,3.39,12.16.1,25.2-.65,36.12-1.62,9.83-.28,19.69-1.37,29.55-2.47,38.36-6.58,72.34-20.82,109.44-24.87a140.82,140.82,0,0,1,33,.76c52.61,8.77,103,12.06,156.11,14Z" transform="translate(-725.41 12.2)"/><path class="cls-5" d="M2068.54,463.46c-8.82.13-17.57.77-26.26,1.6s-17.35,1.83-26,2.69a60.45,60.45,0,0,1-22.5.61c-83.3-11-163.3,8.77-245.5,9.86-20.82,1.1-42.74-2.19-63.2-3q-14.76,0-29.49,0c-49.09,0-97.92-.31-147.07-5.76-10.87-1-22.28-1.78-33.8-2.64-56.33-10.56-113.32-7.27-170.31-.69-69,8.77-137,17.54-204.51,7.75-10.94-1.37-23.12-1.49-35.46-1.53-98.69-.27-197.32-5.19-295.93-9.72-12.26,0-25.21,0-37.31.08,1.1,2.26,2.19,5.26,3.29,5.26l28.46.61c88.25,4.32,176.48,7.61,264.78,8.12q18.92.11,37.85,0c22.91-.75,45.93,4.73,68.94,4.73,81.1,1.1,161.11-4.38,243.31-13.15,29.59-3.29,58.09-1.1,86.64,3.12,13.08,2.36,24.94,3.83,35.44,4.91,49.06,6.63,98.71,7,148.49,7q14.93,0,29.88,0c30.55.29,61.24,9.06,91.92,5.77,83.3-7.67,165.49-18.63,249.33-14,8.9-.71,17.79-1.51,26.65-2.22s17.67-1.34,26.42-1.72Z" transform="translate(-725.41 12.2)"/><path class="cls-5" d="M2077,483.62l-33.35,3.47c-11.3,1-23.39,1.43-36.07,1.53-111.33,1.66-223.12,30.15-334.14,4.16q-12.17-.14-24.42,0t-24.57.74c-41.1,1.83-82.2-1.67-123.21-5.9A240.3,240.3,0,0,1,1475,482.8c-38-7.87-76.35-11.15-114.71-6.77-94.26,9.86-188.51,27.4-283.1,9.52q-18.43-.23-37.05-.37c-99.24-.74-198.61-3.67-298-3.67,103,7.31,207.51,6.82,311.94,6.49,13.05,0,26,.13,37.72,2.06,90.93,17.75,181.9.22,272.87-8.55a360.75,360.75,0,0,1,126.92,9.55,238.11,238.11,0,0,0,27.15,2.88c35.4,2.11,70.81,2.79,106.21,3.48q15.93.31,31.86.66c56.39,5.35,110.09,18.51,167.09,10.83,64.66-8.77,127.14-18.63,191.1-17.44,12.27.08,23.68-.36,34.63-1.1q16.2-1.28,32.38-2.31Z" transform="translate(-725.41 12.2)"/><path class="cls-5" d="M2087.11,486.65q-17.28,1.63-34.59,3.23c-11.7.95-23.69,1.63-36.79,1.52-73.47-1.13-145.8,10.93-219.23,15.31-39.46,3.29-78.91-6.58-118.18-8.93a259.36,259.36,0,0,0-28.28-.7c-39.31.58-78.77,1.41-118.77-2.43-9.32-1.1-18.36-2.47-27.28-3.91a263.49,263.49,0,0,1-28.14-6.67c-60.75-9.15-121-3.67-182.41,5.1-72.34,9.86-142.48,12.06-212.62-1.45q-18-.39-36.22-.56c-97.13-.79-194.31-2-291.49-1.28,95.72,8.77,196.3,5.85,296.2,5.38,12.49-.06,24.86.1,36.33,1.79,93.81,21.33,188.07,2.7,283.42-7.17,46-5.48,91,1.1,136.09,12.33,8.69.8,17.34,1.41,26,1.9,34.66,2,69.44,2.29,104.22,2.47,10.35.13,20.7.25,30.44,1,43,4.21,85.74,10.78,129.58,8.59,76.72-4.38,152.34-18.63,230.22-15.94,12.29.25,23.34-.52,34.39-1.28s21.83-1.71,32.73-2.52Z" transform="translate(-725.41 12.2)"/><path class="cls-5" d="M2100.36,510.49q-14.64.32-29.27,1c-9.85.35-19.74.78-30.53.24a348.85,348.85,0,0,0-64.32.42c-109.6,9.86-217,28.5-325.2,5.9q-17-.26-34.3-.12c-23,.18-46,.52-69,.79-7.67.27-15.28.34-22.85.25a164.46,164.46,0,0,1-22.91-1.76c-90.15-28.08-182.21-10.55-274.28,2.61-51.51,6.58-99.74-2.19-149.25-12.14-10.89-2-22.33-2.42-33.83-2.64q-138-2.67-276.14,6c2.19,1.1,4.38,4.38,5.48,3.29,85.67-6.39,170.22-7.57,254.8-5.65q18.12.41,36.25,1c49.8,10.12,99.12,22.18,150.63,16.7,101.93-12.06,201.66-29.59,300.3-1.1q14,.15,28.05,0c28-.24,56.1-1.15,84.13-1.93A287.07,287.07,0,0,1,1664,524.7c97.44,14.9,191.7,7.22,291.43-8.12,34-5.48,66.86-4.38,99.56-1.19q12.86-.4,25.67-.51t25.58,0Z" transform="translate(-725.41 12.2)"/><path class="cls-5" d="M2114.67,532.14q-17.34.22-34.67.48c-11.65,0-23.75-.83-36.21-2-71.93-8.53-144.27,6.81-216.6,14.48-59.18,7.67-116.18-3.29-174.31-8-10.13-1.12-20.86-.85-31.58-.51-28.34,1.23-56.62,2.86-84.88,4q-14.13.56-28.25.92c-51.43-8.4-102.94-20.45-156.64-13.88-95.35,12.06-189.61,29.59-281.29-.45-10.12-2.19-20.38-3.18-30.68-4.09s-20.66-1.49-31.07-2c-73.43-5.48-145.77,7.67-219.2,13.15-1.1,1.1,2.19,2.19,1.1,4.38,79.28-12.79,158.55-14.76,237.86-11.78q17,.64,34,1.56c55.85,11.32,111.74,27.76,170.93,19,96.45-13.15,188.51-16.44,283-1.71q15.55-.35,31.09-.76l31.09-.83q18.65-.5,37.29-.95c71.29,3.15,142.53,16.3,214.87,5.34,75.62-11,150.15-19.73,225.26-12.2,10.85,1.13,21.07,1.08,31.28,1.13s20.28-.07,30.39.06Z" transform="translate(-725.41 12.2)"/><path class="cls-5" d="M2118.69,549.36q-16-.24-32-.25a310.79,310.79,0,0,1-32.82-2.31c-76.5-10.5-152.12.46-228.84,9.23-64.66,7.67-127.14,0-191-6.1q-17.28.39-34.64,1.18c-23.14,1-46.27,2.17-69.41,3.19-11.57.51-23.1.79-34.25-.58-105.82-19.61-211,8.88-317.35,6.69-40.55-1.1-78.91-13.15-118.56-20.64q-18.88-1.34-37.72-2c-75.37-2.59-150.6.7-226.22,13.85,63.57-3.29,126-15.34,189.61-13.15,20.46.37,40.92,2.07,61.39,4.26,10.24,1.09,20.51,2.5,31.09,5.56,112.47,37.31,229.74,2.24,344.82,4.43,25.21,0,50.42,3.29,75.29,6.44,10.79,1,22,.58,33.21,0,22.47-1.16,44.94-2.5,67.4-3.82q16.85-1,33.64-1.71c71,2.38,140.07,17.73,212.41,4.57,73.43-14.25,144.67-20.82,217-7.38,9.83,1.64,19.33,2.09,28.86,2.53s19,.6,28.59.85Z" transform="translate(-725.41 12.2)"/><path class="cls-5" d="M2115.7,574.47q-14.27-.63-28.54-1.11a244.16,244.16,0,0,1-28.61-3.24c-68.06-10.8-134.91-8.61-204,1.25-74.53,9.86-145.77,4.38-218.76-2.53-12.1-.54-24.24-.09-36.39.4-30.38,1.54-60.77,3.43-91.16,5.31a184.59,184.59,0,0,1-28.7-1.27c-29.41-3-57.9-4.11-87.49-1.92-104.12,7.67-211.53,23-313.76-3.37a291.3,291.3,0,0,0-31.68-5.48c-31-3.75-62.27-6.49-94.05-3.2-50.42,5.48-98.64,14.25-149.05,15.34a13.9,13.9,0,0,1,1.1,6.58c77.49-8.44,154.44-13.66,231.48-10.79q16.51.61,33,1.74c109.22,27.69,221,14.54,333.9,2.48,27.4-3.29,54.8,0,82.48,3.26,9.16,1.09,19.17.73,29.27.2q30.32-1.6,60.64-3.13,18.19-.89,36.39-1.65c104.67,6.81,206.6,9,312.91-6.34,52.61-7.67,103,6.58,154.23,14.81,11.17.37,22.36.37,33.57-.1Z" transform="translate(-725.41 12.2)"/><path class="cls-5" d="M2109.71,588.8q-15.28.58-30.55.16c-78.8-14.29-157.71-22-239.91-7.72-74.53,13.15-146.86,1.1-219.79-2.46q-18,.8-36,1.79-30,1.63-60,3.6-15,1-29.91,1.77c-18.12-1.4-35.65-3.59-54.29-2.5-117.27,1.1-235.64,25.21-352.08,1.41a297.09,297.09,0,0,0-36.27-3.76c-70.38-3.79-140.45-3.33-211.11,5.9-5.76.13-11.93.52-17.71.63l-17.27.34q9.68,0,19.45-.05c6.52,0,13,0,19.75-.14,68.33-6.53,136.58-4.47,204.8-.1q17.06,1.09,34.29,2.58c105.19,19.49,212.59,8.53,320-1.33a438.83,438.83,0,0,1,71.73-.47,199.83,199.83,0,0,0,27.29.05c29.13-2.28,58.28-4.43,87.46-6.15q17.51-1,35-1.84c76.61,6.22,152.23,13.89,230,4,75.62-11,149.05-9.86,222.16,6.72q14.43,1.3,28.89,2.61Z" transform="translate(-725.41 12.2)"/><path class="cls-5" d="M2097.07,606.79c-13.41,1.86-27.66,1.86-40.13-1.95-30.28-10.44-63.16-14.83-96-14.83-108.5-1.1-218.1,16.44-327.12-2.86q-18.11.33-36.22,1-45.27,1.6-90.45,5.18c-10,.7-19.9,1.48-28.9,1.22-22.56-.12-45.58-1.22-68.6,3.17-105.22,17.54-207.14,13.15-309.83,6.91-12.66-.45-24.9-.66-37.14-1-61.09-1.53-122.22-6.06-183-1.28-6.7.23-13.33.36-19.77.49-16.84,2.62-50.81-4.9-55.2,6.38l42.7-.34c14.24-.11,28.6-.35,42.82-.44,59.14-2,119.42,2.43,178.39,3.87,11.06.56,22.1,1.31,33.17,1.94,27.33,4.29,53.63,7.57,81,4.29,44.94-4.38,88.78,5.48,133.71,1.1,57-5.48,111.79-21.92,170.21-18.81q11.63-1.23,23.32-2.31t23.48-1.9c30.41-2.05,60.83-2.88,91.24-3.16a251.56,251.56,0,0,1,31.23,2.49c81.38,11.63,162.49,4,243.59-1.52,55.9-3.29,110.7,4.38,165,17.41q13.94,1.3,28,2.3Z" transform="translate(-725.41 12.2)"/><path class="cls-5" d="M2089.08,628.13q-15.6-.49-31-1.48c-62.13-10.33-124.6-27.86-189.27-20.19-82.2,9.86-161.11,9.86-242.57,1.64q-17.37.34-34.73.83c-28.93.83-57.83,2-86.68,3.73q-14.43.86-28.84,1.91c-18.18,1.75-37.9-1.54-56.53.65-98.64,12.06-192.89,36.17-290.34,22.95-9.51-.83-19-2-28.39-3.31-28.29-3.93-56.36-9-85.12-9.41q-13.47-.14-26.89-.3Q961.9,624.79,935,624c-9.81-.36-20.09-.56-31-.45q-49.68.75-99.41,2c-1.1,0-3.29,3-1.1,3H863l31.85.1c10.49.09,20.44.51,30,1.08q26.1,1.6,52.1,2.33,13,.38,26,.59c39.42,1.13,78.87,11,118.33,14.28q17.81,1.37,35.53,1.85c86.12,8,168.32-15,254.9-26,16.44-2.19,31.78-3.29,48.44-2.45,10.33-1.15,20.66-2.31,31-3.38,31-3.21,62-5.68,92.64-5.13q15.82.41,31.6.54c10.58.19,21.14.3,32.14,1.16,85.32,10.36,169.71-1.69,255.2-5,51.51-2.19,101.93,15.34,153.92,23.72q15,.66,30.39.38Z" transform="translate(-725.41 12.2)"/><path class="cls-5" d="M2115-6.79c-26.55-.79-53.31-1.2-80.15-1.38q-13.42-.09-26.85-.1C1901.72-9.5,1796.51,5.85,1689.77-1.67c-11.88.19-24.24,0-36.07-.13C1630-2,1606.35-3,1582.51-4.8q-18.91-1.44-38.63-1.62c-66-.08-132.07-.08-197.83.53-12.42.15-24.91.18-38.11-.64q-17.72-2-35.43-3.16t-35.42-1.58c-64.2-2.61-126.68,13.83-190.24,17.12C996.43,6.94,946-2.92,897.09-11.23a290.68,290.68,0,0,0-29.52-1c-30.05.28-59.65,2.08-89.24,3.89,2.19,4.2,9.86,4.2,16.44,4.2C806.82-3.5,820-5.9,832-5.3q18.08.3,36.15.57A310,310,0,0,1,902.68-2c49.91,5.65,99.23,19.9,150.74,14.42,68-6.58,132.61-20.82,200.46-17.23Q1272.44-4,1291-2.66T1328.23.75Q1344,.54,1359.75.18c31.51-.68,63-1.58,94.8-1.88q40.83-.45,81.57-.51c13.58,0,27.06.2,40.21,1.21,23,2,45.94,3.52,68.94,4.11q11.5.29,23,.28c49.32-.84,97.54,3.54,146.86,4.64,61.38,0,120.56-13.15,181.46-10.81,9.59-.16,18.8-.11,27.86.05,27.11.33,54.21.83,81,1.24Z" transform="translate(-725.41 12.2)"/><path class="cls-5" d="M2087.14,646.4c-8.8-.26-17.6-.45-26.39-.62-9.05-.35-18-.61-26.29-1.85-87.8-32-179.87-19.94-270.83-15.56a506,506,0,0,1-104-3.86c-13-1.27-25.19-1.45-37.36-1.64-36.23-.19-72.39-.39-108.56,0-8.77.27-17.54.82-26.3,1.56s-17.54,1.66-26.31,2.69c-74.52,2.33-145.76,28.63-219.46,40a205.66,205.66,0,0,1-30.42.65c-12.06-1.1-23.84-.55-35.62.14s-23.56,1.51-35.62,1c-49.32-3.29-97.54-19.73-146.45-21.65-9.95-.24-21.18-1.08-31.11-1.38q-29.79-.91-59.68-2.39c-10.65-.38-21.79-.28-33-.1q-33.66.55-67.31,1.16c0,1.19-1.1,3,1.1,3q32.55,0,65.1-.06c10.85,0,21.63,0,32,.64,10.26.75,20.55,1.31,30.86,1.74s20.63.76,30.93,1c12.11-.59,25.27-.59,37.32,2.69,56.44,12.06,111.79,21.1,166.65,23q16.46.58,32.86.28a235.54,235.54,0,0,0,32.85-1.08,312,312,0,0,0,34.21-5.71c54.56-11,109.36-29.67,164.85-33.11,7.9-.65,16.54-1.74,25.25-2.82,34.83-4.34,69.42-8,104.49-5.8,27.95,1.64,55.74,2.67,83.55,2.79,9.39.16,19.29.88,29.58,1.78,65.51,7.49,131.27-6.76,197-7.86,54.8-1.1,108.5,9.86,160.82,23.56,9.19,1.11,18.8,1.52,28.55,2q14.34.51,28.72,1Z" transform="translate(-725.41 12.2)"/></g></g></svg>